<?xml version="1.0" encoding="UTF-8"?>
<!-- Generator: visioncortex VTracer 0.6.12 -->
<svg version="1.1" xmlns="http://www.w3.org/2000/svg" width="1032" height="1228">
<path d="M0 0 C19.331 9.769 30.088 26.573 38.23 45.969 C39.84 48.656 39.84 48.656 42.02 49.723 C42.909 49.886 43.798 50.05 44.715 50.219 C45.25 50.33 45.25 50.33 47.957 50.891 C49.238 51.143 50.52 51.396 51.84 51.656 C55.18 52.399 58.51 53.18 61.84 53.969 C62.738 54.181 63.636 54.393 64.561 54.612 C79.408 58.176 93.815 62.593 107.84 68.656 C108.57 68.969 109.3 69.281 110.052 69.603 C119.227 73.541 128.198 77.634 136.84 82.656 C138.157 83.404 139.475 84.151 140.793 84.898 C153.97 92.439 166.153 100.95 177.84 110.656 C178.35 111.07 178.859 111.484 179.384 111.911 C193.497 123.396 205.689 136.516 216.62 151.046 C217.781 152.579 218.972 154.089 220.164 155.598 C245.508 188.107 259.201 228.763 265.727 269.012 C265.856 269.799 265.985 270.586 266.117 271.397 C266.435 273.406 266.721 275.42 267.004 277.434 C268.351 282.628 271.566 285.618 275.59 288.969 C295.662 306.248 312.108 333.961 314.84 360.656 C315.925 378.806 315.947 397.082 310.84 414.656 C310.735 415.034 310.735 415.034 310.207 416.947 C305.344 434.214 297.215 448.877 285.84 462.656 C285.452 463.151 285.452 463.151 283.488 465.656 C279.47 470.738 275.407 475.229 270.371 479.316 C268.84 480.656 268.84 480.656 267.84 482.656 C268.644 482.891 269.449 483.125 270.277 483.367 C274.695 484.966 278.703 487.068 282.84 489.281 C283.602 489.682 284.364 490.083 285.148 490.496 C297.489 497.041 309.321 504.074 320.84 511.969 C321.449 512.385 322.059 512.8 322.687 513.229 C339.392 524.638 354.522 537.018 368.657 551.51 C371.063 553.961 373.513 556.238 376.191 558.383 C377.065 559.133 377.939 559.883 378.84 560.656 C378.84 561.316 378.84 561.976 378.84 562.656 C379.5 562.656 380.16 562.656 380.84 562.656 C382.25 564.02 382.25 564.02 383.902 565.969 C384.214 566.336 384.214 566.336 385.793 568.195 C386.468 569.007 387.144 569.82 387.84 570.656 C388.536 571.489 389.232 572.322 389.949 573.18 C392.27 575.986 394.561 578.815 396.84 581.656 C397.252 582.168 397.664 582.681 398.088 583.208 C413.16 602.049 430.857 627.689 435.84 651.656 C436.365 651.669 436.365 651.669 439.023 651.734 C450.361 652.137 458.458 653.701 467.047 661.656 C473.614 668.981 474.989 676.094 474.987 685.65 C474.991 686.569 474.994 687.488 474.998 688.435 C475.009 691.523 475.013 694.61 475.017 697.698 C475.023 699.909 475.03 702.12 475.037 704.331 C475.058 711.598 475.068 718.865 475.078 726.133 C475.082 728.635 475.086 731.137 475.09 733.64 C475.107 744.049 475.122 754.458 475.129 764.867 C475.131 767.567 475.133 770.266 475.135 772.966 C475.135 773.637 475.136 774.308 475.136 775 C475.145 785.863 475.17 796.726 475.203 807.589 C475.236 818.752 475.253 829.914 475.257 841.077 C475.259 847.34 475.268 853.603 475.293 859.867 C475.317 865.762 475.321 871.657 475.311 877.552 C475.31 879.711 475.316 881.871 475.33 884.031 C475.348 886.988 475.341 889.944 475.328 892.901 C475.333 893.325 475.333 893.325 475.361 895.469 C475.283 902.759 473.259 909.291 468.98 915.242 C462.621 921.26 455.971 925.786 446.961 925.777 C445.956 925.778 444.951 925.779 443.915 925.781 C442.813 925.777 441.711 925.773 440.575 925.77 C439.995 925.77 439.995 925.77 437.057 925.77 C433.21 925.77 429.363 925.762 425.516 925.754 C422.852 925.752 420.188 925.751 417.524 925.75 C411.224 925.747 404.924 925.738 398.623 925.728 C391.45 925.717 384.278 925.712 377.105 925.707 C362.35 925.696 347.595 925.679 332.84 925.656 C332.712 926.421 332.583 927.185 332.451 927.972 C331.636 931.552 329.911 933.802 327.777 936.781 C327.378 937.341 326.979 937.901 326.568 938.477 C325.741 939.634 324.911 940.788 324.077 941.94 C322.881 943.599 321.706 945.272 320.535 946.949 C319.831 947.946 319.128 948.942 318.402 949.969 C317.764 950.872 317.126 951.776 316.469 952.707 C315.931 953.35 315.394 953.994 314.84 954.656 C314.18 954.656 313.52 954.656 312.84 954.656 C312.577 955.241 312.313 955.826 312.042 956.428 C310.784 958.76 309.422 960.389 307.602 962.309 C306.953 962.996 306.305 963.683 305.637 964.392 C304.941 965.118 304.245 965.845 303.527 966.594 C302.806 967.35 302.085 968.106 301.342 968.886 C299.87 970.424 298.396 971.96 296.919 973.494 C295.098 975.388 293.291 977.295 291.488 979.207 C278.695 992.59 263.722 1002.66 248.01 1012.301 C246.045 1013.528 244.115 1014.792 242.195 1016.09 C233.62 1021.873 224.669 1026.316 215.255 1030.564 C213.582 1031.321 211.913 1032.087 210.247 1032.86 C203.393 1036.028 196.45 1038.883 189.402 1041.594 C188.281 1042.025 187.159 1042.457 186.004 1042.902 C160.284 1052.656 160.284 1052.656 153.84 1052.656 C153.555 1082.924 153.555 1082.924 157.84 1088.656 C161.652 1091.467 165.978 1092.946 170.402 1094.531 C176.375 1096.719 182.266 1099.034 188.125 1101.512 C190.625 1102.565 193.133 1103.588 195.652 1104.594 C196.059 1104.757 196.059 1104.757 198.117 1105.586 C200.1 1106.365 202.094 1107.117 204.094 1107.852 C221.382 1114.379 243.421 1123.78 252.84 1140.656 C253.764 1145.558 253.603 1150.096 251.402 1154.594 C243.429 1161.011 235.32 1161.237 225.407 1161.174 C223.965 1161.179 222.524 1161.186 221.082 1161.195 C217.189 1161.213 213.297 1161.206 209.404 1161.194 C205.315 1161.183 201.225 1161.193 197.136 1161.199 C190.268 1161.206 183.4 1161.197 176.533 1161.178 C168.616 1161.156 160.699 1161.163 152.783 1161.185 C145.964 1161.203 139.145 1161.206 132.326 1161.195 C128.263 1161.189 124.2 1161.188 120.137 1161.201 C116.313 1161.213 112.49 1161.205 108.667 1161.182 C107.272 1161.177 105.877 1161.178 104.482 1161.187 C91.567 1161.262 81.317 1158.752 71.84 1149.656 C61.128 1137.372 63.742 1121.282 64.65 1106.135 C64.862 1103.366 65.231 1100.627 65.604 1097.876 C66.141 1092.824 66.225 1087.732 66.402 1082.656 C66.446 1081.5 66.489 1080.344 66.533 1079.152 C66.639 1076.32 66.741 1073.488 66.84 1070.656 C66.296 1070.711 65.751 1070.766 65.191 1070.822 C49.627 1072.355 34.094 1073.164 18.466 1073.662 C14.684 1073.782 10.903 1073.912 7.121 1074.043 C4.671 1074.126 2.22 1074.208 -0.23 1074.289 C-0.784 1074.308 -0.784 1074.308 -3.587 1074.403 C-14.167 1074.736 -24.727 1074.832 -35.301 1074.289 C-36.104 1074.25 -36.906 1074.211 -37.733 1074.171 C-40.292 1074.045 -42.851 1073.914 -45.41 1073.781 C-46.286 1073.737 -47.161 1073.692 -48.064 1073.647 C-59.022 1073.087 -69.971 1072.461 -80.91 1071.594 C-81.913 1071.515 -82.917 1071.436 -83.95 1071.354 C-87.799 1071.029 -91.426 1070.678 -95.16 1069.656 C-94.795 1082.604 -94.394 1095.514 -93.098 1108.406 C-90.142 1138.578 -90.142 1138.578 -99.223 1149.77 C-106.239 1156.602 -114.688 1160.893 -124.516 1160.924 C-125.773 1160.932 -127.03 1160.941 -128.326 1160.95 C-129.707 1160.949 -131.087 1160.948 -132.468 1160.947 C-133.932 1160.953 -135.396 1160.96 -136.86 1160.967 C-140.827 1160.985 -144.794 1160.989 -148.761 1160.991 C-151.243 1160.992 -153.725 1160.996 -156.206 1161.002 C-164.873 1161.02 -173.539 1161.028 -182.205 1161.027 C-190.269 1161.026 -198.333 1161.047 -206.397 1161.078 C-213.332 1161.105 -220.267 1161.115 -227.202 1161.114 C-231.339 1161.113 -235.476 1161.119 -239.613 1161.14 C-243.506 1161.16 -247.399 1161.16 -251.292 1161.145 C-252.715 1161.143 -254.138 1161.148 -255.562 1161.16 C-264.913 1161.235 -272.35 1160.645 -279.723 1154.531 C-281.893 1150.191 -281.981 1146.408 -281.16 1141.656 C-277.302 1131.735 -268.056 1126.452 -259.16 1121.656 C-258.377 1121.227 -257.594 1120.797 -256.788 1120.354 C-245.189 1114.009 -233.534 1108.533 -221.188 1103.824 C-215.507 1101.633 -209.858 1099.362 -204.206 1097.099 C-202.192 1096.294 -200.177 1095.493 -198.162 1094.692 C-196.912 1094.193 -195.661 1093.694 -194.41 1093.195 C-193.302 1092.754 -192.193 1092.313 -191.051 1091.858 C-184.471 1089.123 -184.471 1089.123 -182.16 1085.656 C-181.917 1082.809 -181.917 1082.809 -181.93 1079.379 C-181.932 1078.143 -181.934 1076.908 -181.936 1075.635 C-181.948 1074.342 -181.96 1073.05 -181.973 1071.719 C-181.973 1070.43 -181.974 1069.142 -181.975 1067.814 C-182.026 1056.835 -182.026 1056.835 -183.16 1053.656 C-184.848 1052.566 -184.848 1052.566 -187.16 1051.719 C-188.07 1051.385 -188.98 1051.051 -189.918 1050.707 C-192.904 1049.739 -195.906 1048.856 -198.927 1048.002 C-213.386 1043.916 -227.212 1038.412 -240.551 1031.492 C-243.997 1029.711 -247.51 1028.092 -251.034 1026.471 C-267.396 1018.907 -282.037 1009.846 -296.16 998.656 C-296.851 998.11 -297.541 997.564 -298.252 997.001 C-315.832 983.03 -333.365 968.279 -346.16 949.656 C-347.211 948.152 -348.262 946.648 -349.312 945.145 C-367.268 919.306 -379.073 893.995 -386.91 863.469 C-387.226 862.256 -387.542 861.044 -387.867 859.795 C-390.16 850.916 -390.16 850.916 -390.16 848.656 C-390.887 848.581 -391.614 848.507 -392.363 848.43 C-405.101 846.764 -415.68 841.422 -424.16 831.656 C-434.424 816.953 -437.013 801.099 -439.16 783.656 C-439.74 784.055 -440.32 784.453 -440.918 784.863 C-449.616 790.763 -456.62 794.803 -467.348 792.906 C-475.446 791.284 -480.481 786.185 -485.16 779.656 C-491.705 767.445 -493.53 755.778 -493.41 742.031 C-493.403 740.89 -493.395 739.748 -493.387 738.572 C-493.002 708.064 -484.034 675.85 -468.16 649.656 C-467.964 649.089 -467.964 649.089 -466.973 646.219 C-464.577 639.611 -460.765 633.66 -457.16 627.656 C-456.779 627.021 -456.399 626.386 -456.006 625.732 C-447.661 611.907 -438.627 598.497 -428.23 586.125 C-426.193 583.696 -424.237 581.216 -422.285 578.719 C-418.674 574.175 -414.808 569.909 -410.84 565.678 C-408.722 563.411 -406.887 561.247 -405.16 558.656 C-404.5 558.656 -403.84 558.656 -403.16 558.656 C-403.036 558.347 -403.036 558.347 -402.41 556.781 C-400.954 554.306 -399.782 553.705 -397.16 552.656 C-397.16 551.996 -397.16 551.336 -397.16 550.656 C-396.5 550.656 -395.84 550.656 -395.16 550.656 C-395.16 549.996 -395.16 549.336 -395.16 548.656 C-394.5 548.656 -393.84 548.656 -393.16 548.656 C-393.16 547.996 -393.16 547.336 -393.16 546.656 C-391.587 545.242 -389.949 543.9 -388.285 542.594 C-384.557 539.619 -380.959 536.598 -377.473 533.344 C-353.907 511.94 -325.287 497.031 -297.16 482.656 C-298.833 479.052 -300.66 477.158 -303.723 474.594 C-313.121 466.304 -320.057 456.551 -326.16 445.656 C-326.494 445.062 -326.828 444.469 -327.172 443.857 C-331.624 435.799 -335.096 427.567 -338.035 418.844 C-338.321 417.997 -338.608 417.15 -338.903 416.277 C-342.602 404.82 -343.569 393.77 -343.535 381.781 C-343.535 381.056 -343.534 380.331 -343.534 379.584 C-343.412 344.124 -330.183 315.784 -305.16 290.656 C-303.64 289.322 -302.12 287.988 -300.598 286.656 C-295.773 281.862 -295.156 276.177 -294.16 269.656 C-289.915 241.853 -281.675 213.433 -268.16 188.656 C-267.766 187.902 -267.371 187.148 -266.965 186.371 C-252.902 160.064 -234.929 135.039 -212.16 115.656 C-211.251 114.87 -210.343 114.084 -209.406 113.273 C-202.648 107.511 -195.648 102.439 -188.16 97.656 C-187.034 96.919 -185.909 96.181 -184.785 95.441 C-177.378 90.589 -169.848 86 -162.09 81.726 C-160.765 80.991 -159.445 80.248 -158.129 79.497 C-132.869 65.096 -104.537 56.482 -76.16 50.656 C-76.16 47.099 -76.936 46.24 -78.973 43.406 C-83.789 36.335 -86.429 30.295 -85.16 21.656 C-82.81 16.685 -80.299 14.534 -75.16 12.656 C-72.402 12.133 -69.94 11.811 -67.16 11.656 C-66.285 11.603 -65.41 11.551 -64.508 11.496 C-50.097 11.051 -35.246 14.599 -23.16 22.656 C-23.195 21.571 -23.23 20.485 -23.266 19.367 C-23.294 17.922 -23.321 16.477 -23.348 15.031 C-23.36 14.675 -23.36 14.675 -23.424 12.871 C-23.49 8.042 -22.781 4.864 -20.16 0.656 C-13.788 -5.119 -7.312 -3.109 0 0 Z " fill="#FDC828" transform="translate(525.16015625,35.34375)"/>
<path d="M0 0 C0.386 -0.007 0.386 -0.007 2.338 -0.042 C4.921 -0.085 7.503 -0.113 10.085 -0.142 C11.938 -0.169 13.791 -0.197 15.644 -0.226 C32.553 -0.472 49.464 -0.594 66.374 -0.69 C78.866 -0.762 91.356 -0.89 103.847 -1.092 C112.639 -1.23 121.431 -1.302 130.224 -1.326 C135.472 -1.342 140.716 -1.387 145.963 -1.504 C150.905 -1.612 155.841 -1.638 160.784 -1.605 C162.59 -1.606 164.397 -1.636 166.202 -1.699 C179.437 -2.131 179.437 -2.131 184.169 2.027 C188.266 6.699 191.283 11.934 194.266 17.355 C195.432 19.225 196.603 21.092 197.79 22.949 C198.749 24.579 199.699 26.215 200.641 27.855 C201.173 28.767 201.704 29.678 202.251 30.618 C210.035 44.037 217.564 57.604 225.028 71.203 C245.54 108.506 245.54 108.506 258.266 124.355 C258.647 124.836 258.647 124.836 260.571 127.273 C274.545 144.705 291.231 157.015 314.009 159.675 C325.899 160.204 337.709 156.304 347.266 149.355 C347.888 148.915 348.509 148.476 349.149 148.023 C366.727 134.347 373.852 109.109 376.889 87.995 C377.631 80.835 377.659 73.673 377.641 66.48 C377.641 66.074 377.641 66.074 377.641 64.018 C377.594 46.071 375.243 29.239 369.754 12.108 C368.419 7.804 368.153 4.734 369.266 0.355 C380.584 -0.182 388.449 0.309 397.516 7.542 C402.468 12.128 405.856 17.738 407.266 24.355 C407.367 27.36 407.414 30.343 407.414 33.348 C407.417 34.268 407.421 35.187 407.425 36.134 C407.436 39.222 407.44 42.309 407.443 45.396 C407.45 47.607 407.456 49.818 407.463 52.029 C407.484 59.297 407.495 66.564 407.505 73.831 C407.509 76.334 407.513 78.836 407.517 81.338 C407.534 91.747 407.548 102.156 407.556 112.566 C407.558 115.265 407.56 117.965 407.562 120.665 C407.562 121.336 407.562 122.007 407.563 122.698 C407.571 133.562 407.597 144.425 407.629 155.288 C407.662 166.45 407.68 177.613 407.683 188.775 C407.686 195.039 407.695 201.302 407.72 207.566 C407.743 213.461 407.747 219.355 407.737 225.25 C407.737 227.41 407.743 229.57 407.757 231.73 C407.774 234.687 407.767 237.643 407.754 240.599 C407.76 241.023 407.76 241.023 407.787 243.168 C407.71 250.458 405.686 256.99 401.407 262.941 C395.047 268.959 388.398 273.485 379.388 273.475 C378.382 273.477 377.377 273.478 376.341 273.479 C375.79 273.478 375.79 273.478 373.002 273.468 C372.421 273.469 372.421 273.469 369.483 273.469 C365.636 273.468 361.789 273.46 357.942 273.453 C355.278 273.451 352.615 273.449 349.951 273.448 C343.651 273.445 337.35 273.437 331.05 273.427 C323.877 273.416 316.704 273.41 309.531 273.405 C294.776 273.395 280.021 273.377 265.266 273.355 C264.936 274.675 264.606 275.995 264.266 277.355 C262.946 276.695 261.626 276.035 260.266 275.355 C260.596 274.695 260.926 274.035 261.266 273.355 C260.441 273.356 259.615 273.358 258.764 273.36 C209.83 273.449 160.896 273.518 111.962 273.559 C106.086 273.564 100.211 273.569 94.335 273.575 C93.165 273.576 91.996 273.577 90.791 273.578 C71.85 273.595 52.91 273.627 33.97 273.664 C14.536 273.701 -4.898 273.723 -24.332 273.731 C-36.324 273.737 -48.316 273.754 -60.308 273.787 C-68.531 273.808 -76.754 273.814 -84.977 273.809 C-89.722 273.806 -94.466 273.81 -99.21 273.832 C-103.557 273.851 -107.903 273.852 -112.25 273.838 C-113.82 273.837 -115.389 273.842 -116.959 273.854 C-129.427 273.949 -138.556 272.271 -147.82 263.515 C-153.442 257.17 -154.942 250.187 -155.046 241.917 C-155.075 241.154 -155.104 240.39 -155.134 239.603 C-155.142 238.862 -155.151 238.122 -155.159 237.359 C-155.174 236.687 -155.189 236.014 -155.204 235.322 C-154.508 232.411 -153.005 231.25 -150.734 229.355 C-148.367 228.863 -148.367 228.863 -145.697 228.874 C-144.682 228.868 -143.667 228.863 -142.621 228.857 C-142.067 228.864 -142.067 228.864 -139.264 228.901 C-138.093 228.9 -136.922 228.9 -135.715 228.899 C-131.841 228.902 -127.967 228.933 -124.093 228.964 C-121.408 228.974 -118.724 228.978 -116.039 228.981 C-109.692 228.994 -103.346 229.027 -97 229.067 C-89.774 229.112 -82.548 229.134 -75.321 229.154 C-60.459 229.195 -45.596 229.266 -30.734 229.355 C-30.736 228.318 -30.739 227.281 -30.742 226.213 C-30.809 200.965 -30.858 175.717 -30.889 150.469 C-30.905 138.26 -30.926 126.05 -30.96 113.84 C-30.99 103.197 -31.009 92.553 -31.016 81.909 C-31.02 76.275 -31.029 70.641 -31.051 65.007 C-31.071 59.7 -31.077 54.393 -31.073 49.085 C-31.074 47.142 -31.08 45.198 -31.091 43.254 C-31.225 19.639 -31.225 19.639 -23.542 10.175 C-16.824 3.414 -9.467 0.076 0 0 Z " fill="#2E3B42" transform="translate(592.7336578369141,687.6450958251953)"/>
<path d="M0 0 C0.165 0.33 0.165 0.33 1 2 C0.073 4.392 -0.919 6.678 -2 9 C-2.662 10.473 -3.32 11.947 -3.977 13.422 C-4.316 14.184 -4.655 14.947 -5.005 15.732 C-14.023 36.281 -20.744 58.002 -26.396 79.697 C-26.82 81.313 -27.252 82.926 -27.689 84.537 C-36.662 117.58 -42.213 151.8 -42.312 186.062 C-42.316 186.782 -42.32 187.502 -42.324 188.243 C-42.421 224.64 -24.376 259.127 -2 287 C-1.797 287.253 -1.797 287.253 -0.772 288.535 C9.531 301.33 20.993 312.946 34 323 C35.265 324.005 36.529 325.01 37.793 326.016 C48.073 334.117 58.779 341.27 70 348 C70.647 348.391 71.294 348.782 71.96 349.185 C93.115 361.867 115.835 371.664 139 380 C139.791 380.289 140.581 380.578 141.396 380.876 C208.895 405.404 282.801 410.775 354 410 C355.067 409.993 356.135 409.985 357.234 409.978 C389.072 409.671 421.702 405.749 453 400 C453.657 399.879 454.314 399.759 454.991 399.635 C473.234 396.273 491.319 392.685 509 387 C510.297 386.592 511.594 386.185 512.891 385.778 C542.973 376.32 574.588 365.608 601 348 C600.366 347.999 599.732 347.997 599.079 347.996 C561.51 347.915 523.941 347.824 486.372 347.72 C481.861 347.707 477.349 347.695 472.838 347.683 C471.94 347.68 471.042 347.678 470.117 347.675 C455.576 347.635 441.035 347.603 426.494 347.573 C411.573 347.541 396.652 347.503 381.732 347.457 C372.525 347.429 363.318 347.407 354.112 347.393 C347.798 347.382 341.484 347.364 335.171 347.341 C331.528 347.327 327.886 347.317 324.244 347.316 C320.292 347.314 316.341 347.297 312.389 347.278 C311.815 347.279 311.815 347.279 308.911 347.284 C296.264 347.196 284.017 343.64 274.586 334.738 C265.997 325.324 261.286 314.613 261.859 301.73 C261.906 301.159 261.952 300.588 262 300 C263.615 302.422 264.88 304.729 266.188 307.312 C270.168 314.44 275.359 318.261 282.922 321.169 C289.183 322.859 295.648 322.554 302.084 322.519 C303.71 322.525 305.335 322.532 306.961 322.542 C311.408 322.562 315.855 322.557 320.302 322.549 C325.104 322.544 329.907 322.562 334.71 322.577 C343.025 322.601 351.339 322.609 359.654 322.608 C371.676 322.606 383.697 322.627 395.719 322.652 C415.224 322.694 434.729 322.717 454.235 322.729 C473.18 322.741 492.124 322.761 511.069 322.792 C512.237 322.794 513.405 322.796 514.609 322.798 C520.47 322.808 526.331 322.818 532.192 322.828 C580.795 322.911 629.397 322.965 678 323 C678.33 323.99 678.66 324.98 679 326 C679.66 326.66 680.32 327.32 681 328 C678.016 332.345 675.015 336.677 672 341 C671.611 341.559 671.222 342.119 670.821 342.695 C669.742 344.24 668.653 345.776 667.562 347.312 C667.243 347.764 667.243 347.764 665.629 350.051 C665.091 350.694 664.554 351.337 664 352 C663.34 352 662.68 352 662 352 C661.737 352.585 661.474 353.169 661.202 353.772 C659.944 356.104 658.582 357.733 656.762 359.652 C656.113 360.34 655.465 361.027 654.797 361.735 C654.101 362.462 653.405 363.189 652.688 363.938 C651.966 364.694 651.245 365.45 650.502 366.229 C649.03 367.768 647.556 369.304 646.079 370.837 C644.258 372.732 642.452 374.639 640.648 376.551 C627.855 389.933 612.882 400.003 597.17 409.645 C595.205 410.872 593.275 412.136 591.355 413.434 C582.78 419.216 573.829 423.659 564.415 427.908 C562.742 428.665 561.073 429.43 559.407 430.203 C552.553 433.372 545.61 436.227 538.562 438.938 C537.441 439.369 536.32 439.801 535.164 440.246 C509.444 450 509.444 450 503 450 C502.715 480.268 502.715 480.268 507 486 C510.812 488.81 515.138 490.29 519.562 491.875 C525.535 494.062 531.426 496.378 537.285 498.855 C539.785 499.909 542.293 500.932 544.812 501.938 C545.626 502.265 546.439 502.592 547.277 502.93 C549.26 503.709 551.254 504.461 553.254 505.195 C570.543 511.723 592.581 521.124 602 538 C602.925 542.901 602.763 547.44 600.562 551.938 C592.59 558.355 584.48 558.581 574.567 558.518 C573.125 558.523 571.684 558.53 570.242 558.539 C566.349 558.557 562.457 558.55 558.564 558.537 C554.475 558.527 550.385 558.537 546.296 558.543 C539.428 558.55 532.561 558.541 525.693 558.521 C517.776 558.5 509.86 558.507 501.943 558.529 C495.124 558.547 488.305 558.549 481.486 558.539 C477.423 558.533 473.36 558.532 469.297 558.545 C465.473 558.557 461.65 558.549 457.827 558.526 C456.432 558.52 455.037 558.522 453.642 558.531 C440.727 558.605 430.477 556.096 421 547 C410.288 534.716 412.902 518.626 413.81 503.479 C414.022 500.71 414.392 497.971 414.764 495.22 C415.302 490.167 415.385 485.075 415.562 480 C415.606 478.844 415.649 477.687 415.693 476.496 C415.799 473.664 415.901 470.832 416 468 C415.456 468.055 414.912 468.109 414.351 468.166 C398.787 469.698 383.254 470.508 367.626 471.005 C363.844 471.126 360.063 471.256 356.281 471.387 C353.831 471.469 351.38 471.551 348.93 471.633 C348.376 471.652 348.376 471.652 345.573 471.746 C334.994 472.08 324.433 472.176 313.859 471.633 C313.057 471.594 312.254 471.555 311.427 471.515 C308.868 471.389 306.309 471.257 303.75 471.125 C302.874 471.081 301.999 471.036 301.097 470.99 C290.138 470.431 279.189 469.805 268.25 468.938 C267.247 468.858 266.244 468.779 265.21 468.698 C261.362 468.373 257.734 468.021 254 467 C254.365 479.948 254.766 492.857 256.062 505.75 C259.018 535.922 259.018 535.922 249.938 547.113 C242.921 553.946 234.472 558.237 224.644 558.267 C223.387 558.276 222.13 558.284 220.834 558.293 C219.454 558.293 218.073 558.292 216.692 558.291 C215.228 558.297 213.764 558.303 212.3 558.311 C208.333 558.329 204.366 558.333 200.399 558.335 C197.917 558.336 195.435 558.34 192.954 558.346 C184.288 558.364 175.621 558.372 166.955 558.371 C158.891 558.369 150.827 558.391 142.763 558.422 C135.828 558.448 128.893 558.459 121.958 558.458 C117.821 558.457 113.684 558.463 109.548 558.484 C105.654 558.503 101.762 558.504 97.868 558.489 C96.445 558.487 95.022 558.492 93.598 558.504 C84.247 558.578 76.81 557.989 69.438 551.875 C67.267 547.535 67.179 543.752 68 539 C71.858 529.079 81.104 523.796 90 519 C90.783 518.57 91.566 518.141 92.373 517.698 C103.971 511.353 115.627 505.877 127.972 501.167 C133.653 498.977 139.302 496.706 144.954 494.443 C146.968 493.638 148.983 492.836 150.998 492.035 C152.249 491.537 153.499 491.038 154.75 490.539 C155.859 490.098 156.967 489.656 158.109 489.202 C164.689 486.466 164.689 486.466 167 483 C167.243 480.153 167.243 480.153 167.23 476.723 C167.229 475.487 167.227 474.252 167.225 472.979 C167.212 471.686 167.2 470.394 167.188 469.062 C167.187 467.774 167.186 466.486 167.186 465.158 C167.134 454.178 167.134 454.178 166 451 C164.313 449.91 164.313 449.91 162 449.062 C161.09 448.729 160.18 448.395 159.242 448.051 C156.256 447.083 153.255 446.2 150.234 445.346 C135.774 441.259 121.949 435.756 108.609 428.836 C105.163 427.055 101.65 425.436 98.126 423.815 C81.764 416.251 67.123 407.19 53 396 C52.31 395.454 51.619 394.908 50.908 394.345 C33.328 380.374 15.795 365.623 3 347 C1.949 345.496 0.899 343.992 -0.152 342.488 C-18.107 316.65 -29.912 291.338 -37.75 260.812 C-38.066 259.6 -38.382 258.388 -38.707 257.139 C-41 248.26 -41 248.26 -41 246 C-41.727 245.925 -42.454 245.85 -43.203 245.773 C-55.94 244.108 -66.519 238.766 -75 229 C-85.539 213.903 -90 195.327 -90 177 C-89.01 177 -88.02 177 -87 177 C-87.046 175.717 -87.093 174.435 -87.141 173.113 C-87.128 167.874 -86.12 163.224 -84.75 158.188 C-84.491 157.221 -84.232 156.255 -83.966 155.259 C-69.337 102.322 -46.718 33.683 0 0 Z " fill="#F5A421" transform="translate(176,638)"/>
<path d="M0 0 C2.519 1.664 4.834 3.431 7.156 5.359 C7.939 6.004 8.721 6.648 9.527 7.312 C18.127 14.743 25.935 23.235 33.16 32 C44.895 45.75 63.247 51.146 80.352 54.355 C81.241 54.524 82.131 54.692 83.047 54.865 C84.789 55.187 86.533 55.496 88.279 55.789 C94.597 56.94 98.7 59.161 103.531 63.484 C105.945 67.755 105.774 71.565 105.156 76.359 C102.773 83.65 96.625 87.793 90.09 91.301 C87.807 92.55 85.617 93.924 83.406 95.297 C29.862 127.343 -51.889 124.239 -110.305 109.631 C-123.648 106.031 -136.99 100.849 -148.418 93.012 C-150.948 91.288 -153.553 89.8 -156.219 88.297 C-160.915 85.497 -164.425 82.632 -166.656 77.484 C-167.444 68.559 -167.444 68.559 -165.219 64.109 C-159.066 56.985 -152.319 56.125 -143.344 54.422 C-118.126 49.302 -100.41 40.178 -83.844 20.359 C-62.284 -5.049 -30.862 -17.805 0 0 Z " fill="#FC8824" transform="translate(541.84375,339.640625)"/>
<path d="M0 0 C8.52 6.27 11.191 18.427 12.939 28.323 C13.735 34.68 13.739 41.047 13.738 47.446 C13.742 49.843 13.779 52.237 13.816 54.633 C13.917 68.533 12.773 86.619 2.855 97.383 C-2.066 101.697 -6.182 103.279 -12.617 103.109 C-32.446 100.695 -52.549 87.132 -67.633 74.742 C-69.582 75.691 -71.477 76.645 -73.316 77.795 C-79.536 81.487 -85.553 81.339 -92.633 81.242 C-93.77 81.258 -94.907 81.273 -96.078 81.289 C-102.998 81.257 -107.775 80.405 -113.633 76.742 C-114.96 76.064 -116.293 75.395 -117.633 74.742 C-118.478 75.547 -119.324 76.351 -120.195 77.18 C-133.111 88.202 -150.567 96.544 -166.633 101.742 C-167.128 101.907 -167.128 101.907 -169.633 102.742 C-175.063 103.517 -179.572 103.273 -184.383 100.492 C-192.935 94.07 -196.339 82.094 -197.918 71.898 C-200.531 51.641 -201.762 23.912 -190.633 5.742 C-187.184 1.923 -183.414 -1.955 -178.121 -2.531 C-156.229 -3.231 -135.817 10.222 -119.387 23.566 C-118.808 23.954 -118.229 24.342 -117.633 24.742 C-114.439 23.944 -112.03 22.381 -109.203 20.688 C-103.839 18.022 -98.648 18.117 -92.758 18.18 C-92.245 18.168 -92.245 18.168 -89.652 18.107 C-83.068 18.12 -78.492 19.264 -72.785 22.571 C-70.642 23.737 -69.064 24.518 -66.633 24.742 C-64.972 23.699 -64.972 23.699 -63.348 22.109 C-59.855 18.891 -56.233 16.352 -52.195 13.867 C-51.851 13.655 -51.851 13.655 -50.11 12.58 C-15.601 -8.393 -15.601 -8.393 0 0 Z " fill="#E0393B" transform="translate(603.6328125,549.2578125)"/>
<path d="M0 0 C0 0.66 0 1.32 0 2 C0.99 2 1.98 2 3 2 C2.988 3.088 2.977 4.176 2.965 5.297 C2.773 30.364 2.773 30.364 7 36 C10.812 38.81 15.138 40.29 19.562 41.875 C25.535 44.062 31.426 46.378 37.285 48.855 C39.785 49.909 42.293 50.932 44.812 51.938 C45.626 52.265 46.439 52.592 47.277 52.93 C49.26 53.709 51.254 54.461 53.254 55.195 C70.543 61.723 92.581 71.124 102 88 C102.925 92.901 102.763 97.44 100.562 101.938 C92.59 108.355 84.48 108.581 74.567 108.518 C73.125 108.523 71.684 108.53 70.242 108.539 C66.349 108.557 62.457 108.55 58.564 108.537 C54.475 108.527 50.385 108.537 46.296 108.543 C39.428 108.55 32.561 108.541 25.693 108.521 C17.776 108.5 9.86 108.507 1.943 108.529 C-4.876 108.547 -11.695 108.549 -18.514 108.539 C-22.577 108.533 -26.64 108.532 -30.703 108.545 C-34.527 108.557 -38.35 108.549 -42.173 108.526 C-43.568 108.52 -44.963 108.522 -46.358 108.531 C-59.273 108.605 -69.523 106.096 -79 97 C-89.712 84.717 -87.098 68.627 -86.19 53.48 C-85.977 50.701 -85.61 47.951 -85.236 45.188 C-84.71 40.312 -84.616 35.399 -84.438 30.5 C-84.394 29.391 -84.351 28.283 -84.307 27.141 C-84.201 24.427 -84.099 21.714 -84 19 C-83.01 19 -82.02 19 -81 19 C-81 17.68 -81 16.36 -81 15 C-79.824 14.825 -78.648 14.649 -77.437 14.469 C-53.031 10.806 -24.211 0 0 0 Z " fill="#FC8821" transform="translate(676,1088)"/>
<path d="M0 0 C5.897 0.562 11.447 1.787 17.19 3.222 C33.647 7.325 50.203 10.15 66.966 12.69 C67.875 12.83 68.784 12.97 69.72 13.114 C71.436 13.378 73.153 13.635 74.87 13.885 C78.531 14.448 80.875 14.916 84 17 C84.401 19.356 84.401 19.356 84.441 22.328 C84.467 23.427 84.492 24.527 84.518 25.659 C84.533 26.844 84.547 28.029 84.562 29.25 C84.769 38.13 85.154 46.913 86.062 55.75 C89.025 85.913 89.025 85.913 79.938 97.113 C72.921 103.946 64.472 108.237 54.644 108.267 C53.387 108.276 52.13 108.284 50.834 108.293 C49.454 108.293 48.073 108.292 46.692 108.291 C45.228 108.297 43.764 108.303 42.3 108.311 C38.333 108.329 34.366 108.333 30.399 108.335 C27.917 108.336 25.435 108.34 22.954 108.346 C14.288 108.364 5.621 108.372 -3.045 108.371 C-11.109 108.369 -19.173 108.391 -27.237 108.422 C-34.172 108.448 -41.107 108.459 -48.042 108.458 C-52.179 108.457 -56.316 108.463 -60.452 108.484 C-64.346 108.503 -68.238 108.504 -72.132 108.489 C-73.555 108.487 -74.978 108.492 -76.402 108.504 C-85.753 108.578 -93.19 107.989 -100.562 101.875 C-102.733 97.535 -102.821 93.752 -102 89 C-98.142 79.079 -88.896 73.796 -80 69 C-79.217 68.57 -78.434 68.141 -77.627 67.698 C-66.029 61.353 -54.373 55.877 -42.028 51.167 C-36.347 48.977 -30.698 46.706 -25.046 44.443 C-23.032 43.638 -21.017 42.836 -19.002 42.035 C-17.751 41.537 -16.501 41.038 -15.25 40.539 C-14.141 40.098 -13.033 39.656 -11.891 39.202 C-5.311 36.466 -5.311 36.466 -3 33 C-2.773 29.906 -2.773 29.906 -2.805 26.145 C-2.806 25.814 -2.806 25.814 -2.813 24.14 C-2.824 22.03 -2.85 19.922 -2.875 17.812 C-2.885 16.381 -2.894 14.949 -2.902 13.518 C-2.924 10.012 -2.959 6.506 -3 3 C-2.01 2.67 -1.02 2.34 0 2 C0 1.34 0 0.68 0 0 Z " fill="#FD8921" transform="translate(346,1088)"/>
<path d="M0 0 C0.466 0.003 0.466 0.003 2.822 0.02 C3.782 0.036 4.742 0.053 5.73 0.07 C6.71 0.079 7.689 0.088 8.697 0.098 C11.104 0.121 13.511 0.154 15.918 0.195 C12.918 2.195 12.918 2.195 10.648 3.422 C2.204 8.065 -3.132 13.874 -6.082 23.195 C-6.497 26.314 -6.496 29.393 -6.476 32.536 C-6.483 33.457 -6.489 34.377 -6.495 35.325 C-6.512 38.399 -6.507 41.472 -6.502 44.546 C-6.509 46.754 -6.518 48.962 -6.528 51.17 C-6.55 57.162 -6.553 63.154 -6.551 69.146 C-6.551 74.153 -6.559 79.16 -6.568 84.167 C-6.588 96.661 -6.589 109.155 -6.582 121.648 C-6.576 132.478 -6.597 143.307 -6.63 154.136 C-6.664 165.274 -6.679 176.412 -6.674 187.549 C-6.672 193.795 -6.678 200.041 -6.702 206.286 C-6.725 212.164 -6.723 218.041 -6.702 223.919 C-6.699 226.07 -6.704 228.221 -6.718 230.372 C-6.868 254.535 -6.868 254.535 0.834 263.4 C5.182 267.656 10.266 270.089 15.918 272.195 C15.918 272.525 15.918 272.855 15.918 273.195 C-2.685 273.289 -21.287 273.359 -39.89 273.403 C-48.528 273.423 -57.166 273.451 -65.804 273.497 C-73.336 273.537 -80.868 273.563 -88.4 273.572 C-92.386 273.577 -96.371 273.589 -100.357 273.618 C-104.114 273.646 -107.871 273.654 -111.629 273.648 C-113.653 273.649 -115.676 273.671 -117.699 273.693 C-128.95 273.643 -136.941 271.132 -145.168 263.355 C-150.791 257.01 -152.29 250.028 -152.395 241.758 C-152.424 240.994 -152.453 240.23 -152.482 239.443 C-152.491 238.703 -152.499 237.962 -152.508 237.199 C-152.522 236.527 -152.537 235.855 -152.552 235.162 C-151.856 232.251 -150.354 231.091 -148.082 229.195 C-145.716 228.703 -145.716 228.703 -143.045 228.714 C-142.03 228.709 -141.015 228.703 -139.969 228.698 C-139.415 228.705 -139.415 228.705 -136.612 228.741 C-135.441 228.741 -134.27 228.74 -133.064 228.739 C-129.189 228.742 -125.316 228.773 -121.441 228.805 C-118.757 228.814 -116.072 228.818 -113.387 228.822 C-107.041 228.834 -100.694 228.867 -94.348 228.907 C-87.122 228.952 -79.896 228.974 -72.67 228.994 C-57.807 229.036 -42.945 229.106 -28.082 229.195 C-28.085 228.158 -28.088 227.121 -28.09 226.053 C-28.157 200.805 -28.206 175.557 -28.237 150.31 C-28.253 138.1 -28.274 125.89 -28.308 113.681 C-28.338 103.037 -28.358 92.394 -28.364 81.75 C-28.368 76.116 -28.377 70.482 -28.399 64.847 C-28.42 59.54 -28.426 54.233 -28.421 48.926 C-28.422 46.982 -28.428 45.038 -28.44 43.095 C-28.573 19.48 -28.573 19.48 -20.891 10.016 C-15.257 4.346 -8.137 -0.1 0 0 Z " fill="#5D6D72" transform="translate(590.08203125,687.8046875)"/>
<path d="M0 0 C6.547 2.262 10.232 6.967 14.594 12.094 C16.419 14.166 18.329 16.08 20.312 18 C24.2 21.835 27.61 25.953 31.023 30.211 C33.132 32.811 35.289 35.35 37.479 37.88 C43.618 45.002 49.131 52.429 54.438 60.188 C54.941 60.919 55.444 61.65 55.963 62.403 C68.982 81.382 80.955 101.041 92.188 121.125 C101.216 137.253 110.422 153.082 122.438 167.188 C122.867 167.706 123.297 168.225 123.739 168.759 C135.233 182.567 151.925 196.299 170.438 198.188 C187.547 199.625 199.12 194.074 212.438 184.188 C213.097 183.857 213.757 183.528 214.438 183.188 C212.87 194.102 203.247 204.627 194.84 211.227 C182.81 219.362 168.975 222.978 154.621 220.539 C140.423 217.517 129.207 210.89 118.438 201.188 C117.741 200.562 117.045 199.937 116.328 199.293 C95.027 179.057 81.431 150.371 67.491 124.974 C48.262 89.954 48.262 89.954 37.936 74.61 C35.851 71.495 34.039 68.438 32.449 65.039 C30.676 61.368 28.452 58.963 25.438 56.188 C24.037 54.563 22.663 52.916 21.312 51.25 C20.53 50.287 19.748 49.324 18.941 48.332 C17.235 46.204 15.56 44.054 13.902 41.887 C8.306 34.595 2.433 27.766 -3.968 21.161 C-4.536 20.569 -5.105 19.977 -5.691 19.367 C-6.197 18.849 -6.703 18.33 -7.225 17.796 C-9.446 15.125 -10.46 12.713 -11.125 9.312 C-10.39 5.229 -8.796 3.743 -5.562 1.266 C-3.562 0.188 -3.562 0.188 0 0 Z " fill="#F3A322" transform="translate(745.5625,626.8125)"/>
<path d="M0 0 C0.511 -0.002 0.511 -0.002 3.098 -0.012 C4.218 -0.002 5.339 0.009 6.494 0.02 C7.674 0.02 8.855 0.019 10.071 0.019 C13.309 0.021 16.546 0.036 19.783 0.057 C23.166 0.075 26.55 0.077 29.933 0.081 C36.34 0.09 42.746 0.115 49.153 0.145 C56.447 0.178 63.74 0.195 71.034 0.21 C86.038 0.241 101.042 0.294 116.046 0.361 C116.099 1.666 116.152 2.972 116.207 4.317 C116.286 6.046 116.365 7.776 116.444 9.505 C116.478 10.364 116.512 11.222 116.547 12.107 C117.003 21.688 119.482 28.601 126.112 35.673 C129.128 38.305 132.38 39.834 136.046 41.361 C137.381 42.022 138.715 42.689 140.046 43.361 C124.051 43.454 108.056 43.525 92.061 43.568 C84.633 43.589 77.206 43.617 69.779 43.663 C63.301 43.703 56.824 43.728 50.347 43.737 C46.92 43.742 43.494 43.754 40.067 43.784 C36.232 43.813 32.398 43.817 28.564 43.815 C27.44 43.829 26.317 43.844 25.159 43.858 C14.521 43.803 6.702 40.839 -1.04 33.521 C-6.696 27.138 -8.149 20.173 -8.204 11.861 C-8.225 11.089 -8.246 10.316 -8.267 9.521 C-8.306 3.861 -8.306 3.861 -6.744 1.639 C-4.374 -0.054 -2.901 -0.009 0 0 Z " fill="#2E3B41" transform="translate(445.9543914794922,917.6392364501953)"/>
<path d="M0 0 C3.245 0.853 5.045 1.907 7.73 3.879 C19.767 11.837 34.044 16.386 48.076 19.376 C50.182 19.833 52.276 20.332 54.371 20.836 C92.107 29.676 132.03 29.115 170.105 22.816 C171.065 22.667 172.024 22.517 173.013 22.363 C192.662 19.251 215.414 13.638 231.305 1.078 C233.105 -0.184 233.105 -0.184 236.168 -0.059 C240.627 1.27 240.627 1.27 242.105 3.816 C242.984 10.626 242.984 10.626 240.168 14.441 C197.965 47.17 128.116 48.663 77.079 42.228 C11.703 33.187 11.703 33.187 -5.113 14.328 C-7.452 11.03 -7.967 8.854 -7.895 4.816 C-5.499 1.331 -4.351 -0.276 0 0 Z " fill="#CD521E" transform="translate(393.89453125,414.18359375)"/>
<path d="M0 0 C0.645 0.452 1.289 0.905 1.953 1.371 C7.235 5.466 10.431 9.98 11.379 16.676 C11.648 22.957 10.855 27.946 7 33 C-2.643 43.325 -13.791 47.563 -27.828 48.324 C-43.313 48.821 -55.37 45.482 -68.25 36.812 C-72.981 31.974 -76.218 26.244 -76.562 19.375 C-76.181 13.376 -73.598 8.917 -69.812 4.375 C-50.909 -11.588 -20.821 -14.756 0 0 Z " fill="#F79D31" transform="translate(751,373)"/>
<path d="M0 0 C6.073 6.315 8.444 11.319 8.34 20.082 C7.614 26.311 4.333 31.04 -0.188 35.25 C-13.358 45.497 -28.862 47.211 -45 46 C-56.974 44.38 -67.633 39.529 -75.477 30.246 C-79.388 24.479 -80.005 18.806 -79 12 C-75.653 2.922 -68.915 -2.029 -60.52 -6.246 C-41.317 -14.581 -16.782 -13.084 0 0 Z " fill="#F79D30" transform="translate(339,375)"/>
<path d="M0 0 C2.567 2.567 2.327 3.612 2.375 7.188 C2.023 25.549 -6.38 41.579 -19.285 54.242 C-24.549 59 -24.549 59 -27 59 C-26.983 59.543 -26.983 59.543 -26.895 62.289 C-26.866 63.734 -26.839 65.18 -26.812 66.625 C-26.787 67.338 -26.762 68.051 -26.736 68.785 C-26.629 76.558 -29.802 81.307 -35 87 C-39.526 91 -39.526 91 -42 91 C-43.004 88.21 -44.003 85.418 -45 82.625 C-45.286 81.831 -45.572 81.037 -45.867 80.219 C-46.138 79.458 -46.409 78.698 -46.688 77.914 C-46.939 77.212 -47.19 76.511 -47.449 75.788 C-48 74 -48 74 -48 72 C-48.699 72.273 -49.397 72.547 -50.117 72.828 C-53 73 -53 73 -56.008 70.797 C-57.061 69.796 -58.1 68.78 -59.125 67.75 C-59.65 67.246 -60.174 66.742 -60.715 66.223 C-62.158 64.83 -63.58 63.416 -65 62 C-65.308 61.745 -65.308 61.745 -66.867 60.453 C-68.516 58.338 -68.21 56.595 -68 54 C-77.575 50.031 -77.575 50.031 -82.062 48.938 C-83.032 48.628 -84.001 48.319 -85 48 C-85.165 47.505 -85.165 47.505 -86 45 C-81.902 38.802 -76.106 33.332 -69 31 C-66.876 30.933 -64.75 30.915 -62.625 30.938 C-56.675 30.569 -56.675 30.569 -53.844 28.184 C-52.108 25.852 -50.554 23.455 -49 21 C-37.894 7.651 -17.622 -2.265 0 0 Z " fill="#AFB8BF" transform="translate(807,778)"/>
<path d="M0 0 C1.105 0.242 2.209 0.485 3.348 0.734 C57.706 12.516 111.635 13.929 165.818 0.487 C168 0 168 0 170 0 C162.639 16.042 139.971 25.769 124.332 31.586 C117.66 33.971 111.043 36.047 104 37 C103.277 37.11 102.554 37.219 101.809 37.332 C70.286 41.332 38.895 33.446 13.582 14.121 C8.898 10.273 4.204 6.374 0 2 C0 1.34 0 0.68 0 0 Z " fill="#FC8822" transform="translate(426,447)"/>
<path d="M0 0 C0 0.66 0 1.32 0 2 C0.99 2 1.98 2 3 2 C2.988 3.076 2.977 4.153 2.965 5.262 C2.899 14.239 3.129 23.058 4 32 C2.68 32 1.36 32 0 32 C0 31.01 0 30.02 0 29 C-0.413 29.141 -0.413 29.141 -2.5 29.854 C-9.115 32.108 -15.738 34.34 -22.375 36.527 C-23.016 36.74 -23.656 36.952 -24.316 37.17 C-36.51 41.176 -48.809 43.584 -61.438 45.75 C-62.084 45.862 -62.084 45.862 -65.357 46.427 C-65.978 46.529 -65.978 46.529 -69.121 47.047 C-69.675 47.139 -69.675 47.139 -72.478 47.604 C-76.628 48.071 -80.824 48 -85 48 C-84.67 38.43 -84.34 28.86 -84 19 C-83.01 19 -82.02 19 -81 19 C-81 17.68 -81 16.36 -81 15 C-79.824 14.825 -78.648 14.649 -77.437 14.469 C-53.031 10.806 -24.211 0 0 0 Z " fill="#E7621D" transform="translate(676,1088)"/>
<path d="M0 0 C5.897 0.562 11.447 1.787 17.19 3.222 C33.647 7.325 50.203 10.15 66.966 12.69 C67.875 12.83 68.784 12.97 69.72 13.114 C71.436 13.378 73.153 13.635 74.87 13.885 C78.531 14.448 80.875 14.916 84 17 C84.432 20.073 84.432 20.073 84.512 23.977 C84.53 24.662 84.548 25.347 84.566 26.053 C84.62 28.244 84.654 30.434 84.688 32.625 C84.721 34.109 84.755 35.594 84.791 37.078 C84.876 40.719 84.943 44.359 85 48 C81.383 49.206 79.314 48.782 75.551 48.215 C74.91 48.119 74.269 48.023 73.608 47.924 C71.508 47.605 69.41 47.273 67.312 46.938 C66.595 46.824 65.878 46.711 65.139 46.594 C43.341 43.125 22.27 37.844 2 29 C1.67 29.99 1.34 30.98 1 32 C0.505 32.165 0.505 32.165 -2 33 C-2.33 23.1 -2.66 13.2 -3 3 C-2.01 2.67 -1.02 2.34 0 2 C0 1.34 0 0.68 0 0 Z " fill="#E7631D" transform="translate(346,1088)"/>
<path d="M0 0 C2.273 1.676 4.348 3.428 6.41 5.355 C6.95 5.854 7.49 6.353 8.047 6.867 C14.087 13.161 19.737 23.027 20.098 31.855 C19.745 36.227 18.377 39.059 15.41 42.355 C11.996 44.946 8.577 44.787 4.41 44.355 C0.938 42.858 -1.014 41.586 -2.641 38.109 C-3.282 36.375 -3.913 34.636 -4.535 32.895 C-6.681 27.728 -9.962 24.332 -14.715 21.48 C-20.292 19.298 -25.804 18.179 -31.676 20.004 C-37.762 22.732 -42.036 26.78 -44.707 32.926 C-45.353 34.644 -45.966 36.376 -46.535 38.121 C-47.817 40.837 -49.011 41.846 -51.59 43.355 C-56.29 44.782 -59.625 44.847 -64.027 42.605 C-66.784 40.185 -68.398 38.535 -68.996 34.859 C-69.345 23.9 -65.303 16.214 -58.277 7.98 C-42.792 -8.233 -19.265 -12.233 0 0 Z " fill="#2B2B29" transform="translate(679.58984375,304.64453125)"/>
<path d="M0 0 C9.223 6.631 15.944 16.034 19 27 C19.718 32.326 19.04 36.492 16 41 C13.111 43.408 11.305 43.961 7.562 44.438 C3.068 43.886 1.327 43.11 -2 40 C-3.42 37.283 -4.609 34.514 -5.805 31.691 C-8.272 26.136 -11.178 23.115 -16.812 20.625 C-22.975 18.452 -27.972 17.871 -34.125 20.562 C-40.989 24.412 -44.119 29.92 -47.09 36.98 C-48.356 39.791 -49.393 41.309 -52 43 C-56.797 44.394 -59.934 44.543 -64.438 42.25 C-67.194 39.83 -68.808 38.18 -69.406 34.504 C-69.756 23.544 -65.713 15.858 -58.688 7.625 C-54.532 3.289 -50.267 -0.119 -45 -3 C-44.277 -3.413 -43.554 -3.825 -42.809 -4.25 C-29.409 -10.78 -12.246 -7.454 0 0 Z " fill="#2B2B29" transform="translate(393,305)"/>
<path d="M0 0 C0.983 0.048 1.966 0.097 2.979 0.146 C4.003 0.203 5.027 0.259 6.082 0.316 C6.6 0.343 6.6 0.343 9.221 0.475 C11.779 0.604 14.337 0.739 16.895 0.879 C16.895 2.859 16.895 4.839 16.895 6.879 C15.905 7.209 14.915 7.539 13.895 7.879 C13.565 7.549 13.565 7.549 11.895 5.879 C12.225 5.219 12.555 4.559 12.895 3.879 C-68.945 3.879 -150.785 3.879 -235.105 3.879 C-235.435 3.219 -235.765 2.559 -236.105 1.879 C-235.519 1.877 -235.519 1.877 -232.553 1.866 C-204.742 1.765 -176.932 1.66 -149.121 1.548 C-145.7 1.534 -142.279 1.52 -138.858 1.507 C-138.177 1.504 -137.496 1.501 -136.794 1.498 C-125.758 1.454 -114.722 1.414 -103.685 1.374 C-92.366 1.334 -81.047 1.29 -69.727 1.242 C-63.367 1.215 -57.007 1.191 -50.647 1.17 C-44.666 1.15 -38.685 1.126 -32.704 1.098 C-30.504 1.089 -28.305 1.081 -26.105 1.075 C-23.11 1.067 -20.116 1.053 -17.122 1.037 C-16.244 1.036 -15.365 1.035 -14.46 1.034 C-9.442 1 -4.982 -0.259 0 0 Z " fill="#3D3927" transform="translate(841.10546875,957.12109375)"/>
<path d="M0 0 C1.61 3.221 0.068 5.682 -1 9 C-1.642 10.676 -2.299 12.348 -3 14 C-3.66 14 -4.32 14 -5 14 C-5 81.65 -5 149.3 -5 219 C-5.66 219 -6.32 219 -7 219 C-7.07 192.705 -7.123 166.41 -7.155 140.114 C-7.171 127.905 -7.192 115.695 -7.226 103.485 C-7.256 92.842 -7.276 82.198 -7.282 71.555 C-7.286 65.92 -7.295 60.286 -7.317 54.652 C-7.338 49.345 -7.344 44.038 -7.339 38.731 C-7.34 36.787 -7.346 34.843 -7.358 32.899 C-7.488 9.812 -7.488 9.812 0 0 Z " fill="#847D45" transform="translate(569,698)"/>
<path d="M0 0 C0.39 -0.003 0.39 -0.003 2.366 -0.016 C4.978 -0.031 7.59 -0.032 10.203 -0.032 C12.077 -0.04 13.952 -0.048 15.826 -0.057 C20.915 -0.079 26.003 -0.088 31.092 -0.093 C34.271 -0.097 37.449 -0.103 40.628 -0.11 C51.714 -0.135 62.801 -0.148 73.888 -0.151 C84.227 -0.155 94.565 -0.185 104.904 -0.227 C113.779 -0.261 122.654 -0.277 131.529 -0.278 C136.83 -0.278 142.132 -0.287 147.433 -0.316 C152.417 -0.342 157.4 -0.344 162.385 -0.328 C164.214 -0.326 166.044 -0.333 167.874 -0.349 C170.371 -0.369 172.866 -0.359 175.363 -0.341 C175.725 -0.347 175.725 -0.347 177.56 -0.381 C181.457 -0.316 183.056 0.172 186.119 2.668 C187.993 5.037 188.853 6.321 189.181 9.274 C185.306 5.524 185.306 5.524 184.181 3.274 C159.547 3.204 134.912 3.151 110.277 3.119 C98.838 3.103 87.4 3.082 75.962 3.048 C65.991 3.018 56.021 2.999 46.05 2.992 C40.772 2.988 35.493 2.979 30.214 2.957 C25.244 2.937 20.273 2.93 15.302 2.935 C13.48 2.934 11.658 2.928 9.836 2.917 C7.343 2.902 4.85 2.905 2.356 2.913 C1.64 2.905 0.924 2.896 0.187 2.887 C-5.118 2.934 -9.004 4.235 -13.819 6.274 C-13.448 4.351 -13.448 4.351 -12.819 2.274 C-8.78 -0.127 -4.569 -0.015 0 0 Z " fill="#E7C452" transform="translate(590.8187255859375,685.7258453369141)"/>
<path d="M0 0 C0.66 0 1.32 0 2 0 C1.732 0.619 1.464 1.237 1.188 1.875 C0.796 2.906 0.404 3.938 0 5 C-0.125 5.297 -0.125 5.297 -0.757 6.798 C-4.059 15.832 -3.441 25.293 -3.432 34.77 C-3.441 36.771 -3.452 38.773 -3.463 40.774 C-3.491 46.185 -3.5 51.595 -3.506 57.006 C-3.516 62.668 -3.542 68.331 -3.566 73.994 C-3.61 84.707 -3.638 95.42 -3.661 106.133 C-3.689 118.334 -3.732 130.534 -3.778 142.735 C-3.871 167.823 -3.942 192.912 -4 218 C-4.616 218.002 -5.231 218.005 -5.866 218.007 C-20.838 218.066 -35.81 218.142 -50.783 218.236 C-58.023 218.281 -65.264 218.32 -72.504 218.346 C-78.814 218.369 -85.124 218.403 -91.434 218.449 C-94.776 218.473 -98.117 218.491 -101.459 218.498 C-105.188 218.507 -108.916 218.535 -112.644 218.568 C-113.199 218.567 -113.199 218.567 -116.011 218.563 C-117.025 218.576 -118.039 218.588 -119.084 218.601 C-119.525 218.604 -119.525 218.604 -121.757 218.615 C-124.464 219.08 -125.35 219.844 -127 222 C-127.432 223.901 -127.432 223.901 -127.512 226.012 C-127.547 226.769 -127.583 227.526 -127.619 228.307 C-127.642 229.092 -127.664 229.878 -127.688 230.688 C-127.722 231.485 -127.756 232.282 -127.791 233.104 C-127.873 235.069 -127.938 237.034 -128 239 C-128.66 238.67 -129.32 238.34 -130 238 C-130.054 235.437 -130.094 232.876 -130.125 230.312 C-130.142 229.591 -130.159 228.87 -130.176 228.127 C-130.217 223.652 -129.717 221.293 -128 217 C-87.41 217 -46.82 217 -5 217 C-5.046 201.899 -5.093 186.797 -5.141 171.238 C-5.161 161.691 -5.18 152.143 -5.195 142.596 C-5.219 127.43 -5.247 112.264 -5.302 97.099 C-5.342 86.055 -5.367 75.011 -5.376 63.967 C-5.382 58.118 -5.394 52.269 -5.423 46.42 C-5.45 40.916 -5.458 35.413 -5.452 29.91 C-5.454 27.888 -5.462 25.866 -5.477 23.845 C-5.497 21.087 -5.492 18.331 -5.481 15.574 C-5.493 14.771 -5.504 13.969 -5.516 13.142 C-5.462 8.088 -4.513 5.611 -1 2 C-0.67 1.34 -0.34 0.68 0 0 Z " fill="#EECD58" transform="translate(566,699)"/>
<path d="M0 0 C0.134 0.278 0.134 0.278 0.812 1.688 C1.204 2.451 1.596 3.214 2 4 C2.392 4.825 2.784 5.65 3.188 6.5 C5.657 9.906 8.268 11.099 12 13 C12 13.66 12 14.32 12 15 C12.701 15.268 13.402 15.536 14.125 15.812 C17 17 17 17 19.875 18.5 C23.195 20.094 26.458 21.016 30 22 C30.639 22.351 31.279 22.701 31.938 23.062 C35.18 24.537 38.467 24.647 42 25 C42 25.66 42 26.32 42 27 C42.82 27.134 43.64 27.268 44.484 27.406 C48.413 28.07 52.332 28.775 56.25 29.5 C56.61 29.565 56.61 29.565 58.43 29.895 C63.769 30.884 63.769 30.884 66 32 C69.48 32.234 72.954 32.394 76.439 32.518 C81.247 32.741 85.372 33.57 90 35 C94.012 35.782 97.832 36.137 101.916 36.177 C102.489 36.183 102.489 36.183 105.39 36.216 C106.621 36.223 107.853 36.231 109.121 36.238 C110.412 36.246 111.703 36.254 113.033 36.263 C115.772 36.278 118.512 36.288 121.251 36.295 C124.012 36.304 126.772 36.325 129.532 36.357 C145.93 36.544 161.588 35.869 177.68 32.456 C181.208 31.763 184.741 31.348 188.312 30.938 C193.398 30.311 197.984 29.212 202.836 27.598 C205.99 26.727 208.749 26.788 212 27 C167.774 51.09 86.959 42.252 41.276 29.082 C9.522 19.245 9.522 19.245 1 7 C0.25 3.188 0.25 3.188 0 0 Z " fill="#D05616" transform="translate(386,419)"/>
<path d="M0 0 C21.827 -0.398 43.653 -0.697 65.483 -0.881 C75.62 -0.968 85.755 -1.088 95.89 -1.282 C104.728 -1.452 113.565 -1.562 122.404 -1.6 C127.083 -1.622 131.756 -1.673 136.433 -1.797 C167.178 -2.583 167.178 -2.583 173.985 3.757 C178.225 8.944 180.471 14.544 182 21 C179.04 18.196 176.714 15.315 174.438 11.938 C171.308 7.302 171.308 7.302 169.285 5.316 C168 4 168 4 168 2 C112.23 2 56.46 2 -1 2 C-0.67 1.34 -0.34 0.68 0 0 Z " fill="#453F17" transform="translate(606,688)"/>
<path d="M0 0 C0.645 0.452 1.289 0.905 1.953 1.371 C7.235 5.466 10.431 9.98 11.379 16.676 C11.648 22.957 10.855 27.946 7 33 C-2.643 43.325 -13.791 47.563 -27.828 48.324 C-43.313 48.821 -55.37 45.482 -68.25 36.812 C-72.981 31.974 -76.218 26.244 -76.562 19.375 C-76.181 13.376 -73.598 8.917 -69.812 4.375 C-50.909 -11.588 -20.821 -14.756 0 0 Z M-43 -6 C-44.331 -5.866 -45.665 -5.769 -47 -5.688 C-52.198 -5.187 -56.382 -3.347 -61 -1 C-61 -0.34 -61 0.32 -61 1 C-61.557 1.062 -62.114 1.124 -62.688 1.188 C-68.059 3.075 -71.156 8.328 -74 13 C-75.704 18.111 -75.584 22.284 -73.25 27.125 C-70.063 32.897 -66.708 36.597 -61 40 C-60.425 40.352 -59.85 40.704 -59.258 41.066 C-54.164 43.93 -49.205 44.834 -43.441 45.605 C-41 46 -41 46 -40 47 C-37.668 47.099 -35.334 47.13 -33 47.125 C-31.721 47.128 -30.442 47.13 -29.125 47.133 C-26 47 -26 47 -25 46 C-22.882 45.627 -20.755 45.301 -18.625 45 C-15.261 44.523 -12.225 44.075 -9 43 C-9 42.34 -9 41.68 -9 41 C-7.35 41 -5.7 41 -4 41 C-4 40.34 -4 39.68 -4 39 C-2.68 38.67 -1.36 38.34 0 38 C0.33 36.68 0.66 35.36 1 34 C1.66 34 2.32 34 3 34 C6.869 30.809 9.308 27.456 9.938 22.438 C10.122 18.846 9.811 15.516 9 12 C8.34 12 7.68 12 7 12 C6.928 11.577 6.928 11.577 6.562 9.438 C3.449 2.589 -2.921 -0.822 -9.75 -3.438 C-12.557 -4.418 -14.662 -5.003 -17.641 -4.973 C-20 -5 -20 -5 -23 -7 C-25.069 -7.243 -25.069 -7.243 -27.414 -7.23 C-28.257 -7.229 -29.1 -7.227 -29.969 -7.225 C-30.407 -7.218 -30.407 -7.218 -32.625 -7.188 C-33.067 -7.187 -33.067 -7.187 -35.305 -7.186 C-41.86 -7.14 -41.86 -7.14 -43 -6 Z " fill="#F2A427" transform="translate(751,373)"/>
<path d="M0 0 C0.396 0.069 0.396 0.069 2.403 0.415 C10.139 1.689 17.706 2.408 25.539 2.629 C26.758 2.667 27.978 2.705 29.234 2.745 C50.254 3.312 71.297 3.023 92.322 2.904 C97.14 2.877 101.959 2.86 106.777 2.849 C108.591 2.843 110.405 2.833 112.219 2.819 C114.737 2.8 117.254 2.793 119.771 2.789 C120.504 2.78 121.238 2.771 121.994 2.762 C126.734 2.771 130.547 3.528 135 5 C135 5.33 135 5.66 135 6 C119.005 6.094 103.01 6.164 87.015 6.207 C79.588 6.228 72.16 6.256 64.733 6.302 C58.256 6.342 51.778 6.367 45.301 6.376 C41.874 6.382 38.448 6.394 35.022 6.423 C31.187 6.452 27.353 6.456 23.518 6.454 C22.395 6.468 21.271 6.483 20.113 6.498 C13.126 6.461 7.147 5.513 1 2 C0.67 1.34 0.34 0.68 0 0 Z " fill="#343B38" transform="translate(451,955)"/>
<path d="M0 0 C-1.32 5.28 -2.64 10.56 -4 16 C-2.958 15.68 -2.958 15.68 2.312 14.062 C3.484 13.703 4.656 13.343 5.863 12.973 C7.916 12.336 9.962 11.679 12 11 C11.816 14.956 11.279 16.684 8.625 19.688 C2.528 24.242 -5.564 25.496 -13 25 C-13.618 16.935 -12.547 9.979 -7.762 3.262 C-5.051 0.282 -4.17 0 0 0 Z " fill="#A9B3BA" transform="translate(734,844)"/>
<path d="M0 0 C3.233 2.958 4.825 4.749 5.438 9.125 C4.804 13.289 4.11 15.136 0.75 17.75 C-2.531 19.241 -4.433 19.52 -8 19 C-10.7 17.2 -12.542 15.916 -14 13 C-14.702 5.868 -14.702 5.868 -11.625 2.062 C-7.337 -1.307 -5.356 -1.362 0 0 Z " fill="#2E3A40" transform="translate(786,798)"/>
<path d="M0 0 C0.33 0.33 0.66 0.66 1 1 C2.724 1.323 4.454 1.608 6.188 1.875 C10.651 2.651 14.002 3.827 18 6 C19.516 6.475 21.037 6.932 22.562 7.375 C26.91 8.748 29.092 10.529 32 14 C28.095 14 25.359 12.377 21.938 10.688 C11.666 5.799 2.623 2.603 -9 4 C-15.944 7.289 -19.461 12.845 -22.051 19.867 C-25.643 31.724 -26.272 43.476 -26.312 55.812 C-26.318 57.016 -26.323 58.219 -26.329 59.458 C-26.248 69.682 -25.475 79.89 -21.938 89.562 C-20.811 92.695 -19.741 95.752 -19 99 C-19.99 99 -20.98 99 -22 99 C-22.642 97.738 -23.262 96.464 -23.875 95.188 C-24.223 94.48 -24.571 93.772 -24.93 93.043 C-28.832 81.948 -28.393 70.294 -28.375 58.688 C-28.376 57.756 -28.378 56.825 -28.379 55.865 C-28.377 41.85 -27.573 28.621 -24 15 C-23.34 15 -22.68 15 -22 15 C-21.752 13.886 -21.505 12.773 -21.25 11.625 C-20 8 -20 8 -17.875 6.562 C-17.256 6.377 -16.637 6.191 -16 6 C-16 5.34 -16 4.68 -16 4 C-15.01 4 -14.02 4 -13 4 C-13 3.34 -13 2.68 -13 2 C-8.499 -0.251 -4.932 -0.247 0 0 Z " fill="#FBAD3D" transform="translate(432,544)"/>
<path d="M0 0 C2.584 2.1 2.91 3.502 3.5 6.75 C2.816 11.195 0.92 14.588 -2 18 C-5.114 19.881 -7.352 20.468 -11 20 C-13.149 18.375 -13.906 17.415 -14.504 14.766 C-14.613 10.069 -14.377 6.716 -11.5 2.875 C-7.802 -0.841 -5.056 -0.912 0 0 Z " fill="#CE541B" transform="translate(487,366)"/>
<path d="M0 0 C3.981 -0.664 6.437 -1.025 9.859 1.219 C13.236 4.627 14.401 7.453 14.562 12.25 C14.496 15.084 14.365 16.504 12.676 18.797 C11 20 11 20 7.625 20 C3.4 18.834 1.767 17.337 -1 14 C-2.17 11.66 -2.166 10.166 -2.188 7.562 C-2.202 6.78 -2.216 5.998 -2.23 5.191 C-2 3 -2 3 0 0 Z " fill="#CD531B" transform="translate(535,366)"/>
<path d="M0 0 C3 2 3 2 3.428 3.832 C3.465 4.559 3.501 5.286 3.539 6.035 C4.003 11.816 5.48 17.171 7.008 22.748 C10.702 36.793 12.51 50.666 12.391 65.177 C12.375 67.5 12.391 69.822 12.41 72.145 C12.432 86.392 10.795 100.533 5.938 114 C5.682 114.761 5.426 115.521 5.162 116.305 C3.292 121.708 3.292 121.708 1 124 C1.69 120.12 2.771 116.492 4 112.75 C5.676 107.425 6.538 102.546 7 97 C7.165 96.835 7.165 96.835 8 96 C9.273 86.587 9.558 77.116 9.9 67.632 C9.984 65.411 10.091 63.193 10.203 60.973 C10.574 48.985 8.781 35.975 4.438 24.727 C3.203 21.528 2.387 18.676 1.812 15.312 C1.654 14.422 1.495 13.531 1.332 12.613 C1.006 10.043 0.939 7.587 1 5 C0.34 5 -0.32 5 -1 5 C-0.67 3.35 -0.34 1.7 0 0 Z " fill="#E5C44D" transform="translate(959,686)"/>
<path d="M0 0 C0.33 0.33 0.33 0.33 2 2 C-1.166 3.583 -4.063 1.99 -7.312 1.062 C-19.862 -2.264 -32.741 -2.505 -44.438 3.875 C-47.773 6.641 -50.739 9.645 -53.688 12.812 C-55 14 -55 14 -57 14 C-57 14.66 -57 15.32 -57 16 C-57.66 16 -58.32 16 -59 16 C-59.268 17.134 -59.536 18.269 -59.812 19.438 C-60.204 20.613 -60.596 21.789 -61 23 C-61.99 23.33 -62.98 23.66 -64 24 C-59.633 12.434 -51.434 3.274 -40.188 -2 C-27.215 -7.518 -12.352 -6.522 0 0 Z " fill="#393012" transform="translate(677,303)"/>
<path d="M0 0 C2.347 1.605 4.599 3.251 6.805 5.043 C5.815 5.373 4.825 5.703 3.805 6.043 C0.617 4.23 0.617 4.23 -2.195 2.043 C-2.195 1.383 -2.195 0.723 -2.195 0.043 C-4.302 -0.69 -6.413 -1.401 -8.535 -2.09 C-10.224 -2.64 -11.905 -3.216 -13.574 -3.824 C-26.371 -8.03 -40.947 -7.488 -53.195 -1.957 C-53.917 -1.657 -54.639 -1.356 -55.383 -1.047 C-60.947 1.464 -65.53 5.154 -70.195 9.043 C-70.986 9.686 -71.776 10.329 -72.59 10.992 C-77.094 14.794 -80.427 18.364 -83.223 23.574 C-83.383 23.817 -83.383 23.817 -84.195 25.043 C-84.855 25.043 -85.515 25.043 -86.195 25.043 C-86.44 25.626 -86.685 26.208 -86.938 26.809 C-88.4 29.406 -90.043 30.883 -92.32 32.793 C-92.683 33.1 -92.683 33.1 -94.516 34.652 C-94.793 34.882 -94.793 34.882 -96.195 36.043 C-96.855 35.713 -97.515 35.383 -98.195 35.043 C-97.771 34.63 -97.347 34.218 -96.91 33.793 C-91.687 28.65 -86.89 23.209 -82.141 17.629 C-61.127 -6.525 -28.992 -17.757 0 0 Z " fill="#F1901B" transform="translate(542.1953125,339.95703125)"/>
<path d="M0 0 C0.511 -0.002 0.511 -0.002 3.098 -0.012 C4.218 -0.002 5.339 0.009 6.494 0.02 C7.674 0.02 8.855 0.019 10.071 0.019 C13.309 0.021 16.546 0.036 19.783 0.057 C23.166 0.075 26.55 0.077 29.933 0.081 C36.34 0.09 42.746 0.115 49.153 0.145 C56.447 0.178 63.74 0.195 71.034 0.21 C86.038 0.241 101.042 0.294 116.046 0.361 C116.046 0.691 116.046 1.021 116.046 1.361 C76.446 1.361 36.846 1.361 -3.954 1.361 C-5.566 11.029 -7.058 20.95 -1.4 29.486 C-0.923 30.105 -0.446 30.723 0.046 31.361 C0.523 31.98 1 32.598 1.491 33.236 C2.634 34.646 3.833 36.01 5.046 37.361 C-0.409 35.341 -3.572 30.462 -6.267 25.548 C-8.219 20.921 -8.348 16.438 -8.392 11.486 C-8.402 10.736 -8.412 9.986 -8.422 9.213 C-8.338 3.898 -8.338 3.898 -6.737 1.652 C-4.372 -0.061 -2.908 -0.009 0 0 Z " fill="#39381D" transform="translate(445.9543914794922,917.6392364501953)"/>
<path d="M0 0 C0.66 0 1.32 0 2 0 C3.362 3.657 4.689 7.325 6 11 C6.196 11.547 6.196 11.547 7.188 14.312 C12.452 38.206 10.729 69.276 -1 91 C-3.056 93.623 -4.3 94.79 -7.5 95.75 C-22.631 96.831 -22.631 96.831 -29 94 C-25.737 92.912 -25.141 93.128 -22 94 C-15.732 94.746 -10.938 94.361 -5.746 90.59 C2.306 83.258 4.533 71.384 6 61 C6.126 58.309 6.211 55.644 6.238 52.953 C6.246 52.183 6.254 51.413 6.263 50.62 C6.277 48.989 6.287 47.359 6.295 45.728 C6.307 44.097 6.327 42.467 6.357 40.836 C6.617 26.554 4.724 13.542 0 0 Z " fill="#FCB13F" transform="translate(610,557)"/>
<path d="M0 0 C0 0.33 0 0.66 0 1 C-0.303 1.073 -0.303 1.073 -1.836 1.445 C-15.504 5.104 -24.674 12.454 -31.738 24.57 C-35.102 31.047 -36.017 36.716 -35 44 C-32.784 46.974 -31.261 48.37 -28 50 C-23.647 50.042 -20.062 49.817 -16.562 47.125 C-15.33 45.449 -14.154 43.731 -13 42 C-13.19 46.077 -13.784 47.752 -16.5 50.875 C-20.435 53.833 -24.287 53.504 -29 53 C-29.969 52.918 -30.939 52.835 -31.938 52.75 C-34 52 -34 52 -35.188 50 C-35.456 49.34 -35.724 48.68 -36 48 C-36.66 47.67 -37.32 47.34 -38 47 C-38.027 44.208 -38.047 41.417 -38.062 38.625 C-38.071 37.831 -38.079 37.037 -38.088 36.219 C-38.113 30.227 -38.113 30.227 -37 28 C-36.34 28 -35.68 28 -35 28 C-35 26.68 -35 25.36 -35 24 C-34.34 24 -33.68 24 -33 24 C-32.732 22.886 -32.464 21.772 -32.188 20.625 C-31 17 -31 17 -28 15 C-27.312 12.375 -27.312 12.375 -27 10 C-25.68 10 -24.36 10 -23 10 C-23 9.34 -23 8.68 -23 8 C-22.34 8 -21.68 8 -21 8 C-21 7.34 -21 6.68 -21 6 C-19.68 6 -18.36 6 -17 6 C-17 5.34 -17 4.68 -17 4 C-5.478 -0.592 -5.478 -0.592 0 0 Z " fill="#E1BC46" transform="translate(647,298)"/>
<path d="M0 0 C7.177 2.403 13.803 5.594 20.28 9.513 C19.62 9.843 18.96 10.173 18.28 10.513 C17.27 9.977 16.259 9.44 15.218 8.888 C6.229 4.179 -5.545 0.156 -15.72 1.513 C-20.898 3.56 -25.239 8.551 -27.72 13.513 C-28.38 13.513 -29.04 13.513 -29.72 13.513 C-29.786 13.868 -29.786 13.868 -30.122 15.665 C-30.21 16.125 -30.21 16.125 -30.657 18.45 C-30.831 19.367 -31.005 20.283 -31.185 21.228 C-31.72 23.513 -31.72 23.513 -32.72 24.513 C-33.115 26.526 -33.462 28.549 -33.782 30.575 C-33.959 31.68 -34.135 32.785 -34.317 33.923 C-34.45 34.778 -34.583 35.632 -34.72 36.513 C-35.05 36.513 -35.38 36.513 -35.72 36.513 C-35.89 30.874 -35.441 25.968 -34.032 20.513 C-33.853 19.815 -33.674 19.116 -33.489 18.396 C-31.182 9.932 -27.74 4.661 -20.72 -0.487 C-14.699 -3.497 -6.157 -1.871 0 0 Z " fill="#D44627" transform="translate(441.7197265625,548.487060546875)"/>
<path d="M0 0 C0.66 0 1.32 0 2 0 C2 0.99 2 1.98 2 3 C2.66 3 3.32 3 4 3 C9.211 20.959 9.211 20.959 9 30 C9.66 30 10.32 30 11 30 C12.079 34.374 12.145 38.64 12.133 43.117 C12.134 43.893 12.135 44.668 12.136 45.467 C12.136 47.102 12.135 48.738 12.13 50.374 C12.125 52.86 12.13 55.346 12.137 57.832 C12.136 59.427 12.135 61.022 12.133 62.617 C12.135 63.353 12.137 64.088 12.139 64.846 C12.119 69.329 11.731 73.576 11 78 C10.67 78 10.34 78 10 78 C9.995 77.515 9.995 77.515 9.972 75.06 C9.678 49.018 7.157 25.138 0 0 Z " fill="#424022" transform="translate(961,693)"/>
<path d="M0 0 C0 0.66 0 1.32 0 2 C-3.462 5 -3.462 5 -6 5 C-6 5.66 -6 6.32 -6 7 C-18.764 13.751 -30.915 18.387 -45.171 20.927 C-61.721 23.883 -61.721 23.883 -65 28 C-66.447 32.342 -66.53 36.462 -66 41 C-64.125 44.438 -64.125 44.438 -62 47 C-61.34 47.99 -60.68 48.98 -60 50 C-63.808 48.504 -65.694 46.339 -68 43 C-69.543 39.271 -69.544 34.968 -69 31 C-66.663 26.326 -63.722 23.205 -59 21 C-54.549 19.764 -50.036 18.923 -45.5 18.062 C-13.558 11.577 -13.558 11.577 -3.293 1.289 C-2 0 -2 0 0 0 Z " fill="#F3931D" transform="translate(444,376)"/>
<path d="M0 0 C6.518 1.789 6.518 1.789 9.409 3.053 C12.206 4.075 14.302 4.26 17.271 4.278 C17.792 4.284 17.792 4.284 20.428 4.312 C21.56 4.314 22.692 4.317 23.859 4.319 C25.059 4.329 26.259 4.339 27.496 4.349 C30.779 4.375 34.062 4.392 37.344 4.405 C40.778 4.42 44.212 4.447 47.646 4.473 C54.145 4.519 60.643 4.556 67.142 4.589 C74.542 4.628 81.943 4.677 89.343 4.727 C104.562 4.831 119.781 4.92 135 5 C135 5.33 135 5.66 135 6 C119.005 6.094 103.01 6.164 87.015 6.207 C79.588 6.228 72.16 6.256 64.733 6.302 C58.256 6.342 51.778 6.367 45.301 6.376 C41.874 6.382 38.448 6.394 35.022 6.423 C31.187 6.452 27.353 6.456 23.518 6.454 C22.395 6.468 21.271 6.483 20.113 6.498 C13.126 6.461 7.147 5.513 1 2 C0.67 1.34 0.34 0.68 0 0 Z " fill="#453817" transform="translate(451,955)"/>
<path d="M0 0 C0.365 -0.006 0.365 -0.006 2.213 -0.037 C14.616 -0.07 24.839 4.71 33.828 13.125 C40.812 20.384 40.812 20.384 40.812 24.188 C40.153 24.188 39.493 24.188 38.812 24.188 C37.896 22.762 36.981 21.336 36.07 19.906 C32.173 14.58 26.546 11.23 20.812 8.188 C20.812 7.527 20.812 6.868 20.812 6.188 C20.153 6.188 19.493 6.188 18.812 6.188 C18.812 5.527 18.812 4.868 18.812 4.188 C6.243 1.632 -7.52 1.708 -19.188 7.188 C-19.848 7.188 -20.507 7.188 -21.188 7.188 C-21.188 7.848 -21.188 8.507 -21.188 9.188 C-22.507 8.858 -23.827 8.527 -25.188 8.188 C-22.918 7.039 -20.647 5.894 -18.375 4.75 C-17.732 4.425 -17.09 4.099 -16.428 3.764 C-10.686 0.878 -6.366 0.005 0 0 Z " fill="#43360D" transform="translate(366.1875,297.8125)"/>
<path d="M0 0 C-7.76 2.804 -15.689 4.716 -23.711 6.589 C-25.997 7.124 -28.28 7.669 -30.562 8.215 C-37.695 9.901 -44.688 11.343 -52 12 C-52.33 12.165 -52.33 12.165 -54 13 C-56.559 13.311 -59.119 13.51 -61.688 13.719 C-64 14 -64 14 -66 15 C-68.552 15.072 -71.075 15.093 -73.625 15.062 C-74.331 15.058 -75.038 15.053 -75.766 15.049 C-77.51 15.037 -79.255 15.019 -81 15 C-81 14.67 -81 14.34 -81 14 C-79.824 13.825 -78.648 13.649 -77.437 13.469 C-58.737 10.663 -17.036 -5.287 0 0 Z " fill="#E16B15" transform="translate(676,1089)"/>
<path d="M0 0 C0.66 0 1.32 0 2 0 C2.371 0.928 2.742 1.856 3.125 2.812 C5.309 6.526 7.067 7.427 11 9 C10.711 9.206 10.711 9.206 9.25 10.25 C5.856 12.89 3.379 14.864 2 19 C1.34 19 0.68 19 0 19 C-0.371 18.072 -0.742 17.144 -1.125 16.188 C-3.309 12.474 -5.067 11.573 -9 10 C-6.948 7.752 -5.993 6.998 -3 6 C-1.312 2.938 -1.312 2.938 0 0 Z " fill="#A9B3B9" transform="translate(742,764)"/>
<path d="M0 0 C0.66 0 1.32 0 2 0 C2.392 0.928 2.784 1.856 3.188 2.812 C5.147 6.259 6.598 7.161 10 9 C10 9.66 10 10.32 10 11 C9.051 11.206 8.102 11.413 7.125 11.625 C4 13 4 13 2.625 16.125 C2.419 17.074 2.212 18.023 2 19 C1.34 19 0.68 19 0 19 C-0.206 18.051 -0.413 17.102 -0.625 16.125 C-2 13 -2 13 -5.125 11.625 C-6.074 11.419 -7.023 11.212 -8 11 C-7 8 -7 8 -4.562 6.625 C-1.553 4.716 -0.996 3.35 0 0 Z " fill="#A5AFB6" transform="translate(813,835)"/>
<path d="M0 0 C1.938 0.312 1.938 0.312 4 1 C4.33 1.99 4.66 2.98 5 4 C5.454 4.454 5.908 4.908 6.375 5.375 C8 7 8 7 9.25 9.125 C10.831 11.722 12.519 13.902 14.438 16.25 C19.216 22.316 21.611 28.905 24.211 36.09 C25.032 38.078 26.018 39.844 27.125 41.688 C28.793 44.635 29.598 46.682 30 50 C27.838 47.231 26.043 44.431 24.355 41.352 C23.85 40.438 23.344 39.525 22.823 38.584 C22.283 37.608 21.744 36.631 21.188 35.625 C15.885 26.114 10.245 16.879 4.319 7.745 C4.036 7.309 4.036 7.309 2.605 5.102 C2.102 4.332 1.598 3.561 1.079 2.768 C0 1 0 1 0 0 Z " fill="#DDA240" transform="translate(780,695)"/>
<path d="M0 0 C6.315 5.572 12.178 13.971 13.336 22.465 C13.426 28.148 12.968 31.591 9 36 C5.585 38.59 2.167 38.431 -2 38 C-5.178 36.321 -7.336 34.924 -9.438 32 C-10.105 29.627 -9.82 28.297 -9 26 C-8.649 26.949 -8.299 27.897 -7.938 28.875 C-6 32 -6 32 -2.875 33.438 C1.639 34.093 5.529 33.75 10 33 C10.727 21.428 8.715 12.539 1.172 3.559 C0 2 0 2 0 0 Z " fill="#3B300D" transform="translate(686,311)"/>
<path d="M0 0 C7.831 1.958 7.831 1.958 11 5 C11 5.66 11 6.32 11 7 C12.65 7 14.3 7 16 7 C16 6.01 16 5.02 16 4 C22.514 0.441 28.56 0.517 35.875 0.562 C37.008 0.543 38.141 0.523 39.309 0.502 C46.434 0.506 51.781 1.453 58 5 C58 5.66 58 6.32 58 7 C57.489 6.789 56.978 6.578 56.451 6.361 C49.931 3.907 43.988 3.483 37.062 3.5 C36.042 3.472 35.022 3.443 33.971 3.414 C27.369 3.397 22.799 4.547 17.056 7.826 C15 9 15 9 12 10 C9.798 8.615 7.841 7.23 5.812 5.625 C5.254 5.2 4.695 4.774 4.119 4.336 C2.72 3.257 1.357 2.132 0 1 C0 0.67 0 0.34 0 0 Z " fill="#FEB83D" transform="translate(474,565)"/>
<path d="M0 0 C0 0.99 0 1.98 0 3 C-24.765 10.328 -53.001 18 -79 18 C-79 17.34 -79 16.68 -79 16 C-78.132 15.884 -77.264 15.768 -76.37 15.649 C-73.153 15.217 -69.936 14.783 -66.72 14.346 C-65.327 14.157 -63.934 13.97 -62.541 13.784 C-60.54 13.517 -58.539 13.245 -56.539 12.973 C-55.335 12.81 -54.13 12.648 -52.889 12.481 C-50 12 -50 12 -48 11 C-45.99 10.702 -43.974 10.439 -41.957 10.191 C-34.137 9.113 -26.556 7.387 -18.9 5.486 C-16.647 4.927 -14.391 4.38 -12.135 3.834 C-10.698 3.482 -9.261 3.13 -7.824 2.777 C-7.151 2.614 -6.479 2.45 -5.786 2.282 C-1.116 1.116 -1.116 1.116 0 0 Z " fill="#FB9B29" transform="translate(675,1085)"/>
<path d="M0 0 C4.374 -0.375 6.334 0.73 10 3 C29.562 12.639 53.827 10.374 75 10 C59.956 17.802 33.762 13.44 18.168 8.57 C11.899 6.462 5.878 4.057 0 1 C0 0.67 0 0.34 0 0 Z " fill="#F2921B" transform="translate(459,472)"/>
<path d="M0 0 C-2.88 1.44 -4.839 0.548 -8 0 C-21.485 -0.95 -32.288 0.555 -43.188 9.32 C-45.823 11.763 -48.163 14.405 -50.457 17.168 C-51.895 18.876 -53.398 20.446 -55 22 C-54.355 18.517 -53.018 15.906 -51 13 C-50.34 13 -49.68 13 -49 13 C-49 12.01 -49 11.02 -49 10 C-48.34 10 -47.68 10 -47 10 C-46.67 8.68 -46.34 7.36 -46 6 C-44.35 5.67 -42.7 5.34 -41 5 C-41 4.34 -41 3.68 -41 3 C-40.237 2.876 -39.474 2.752 -38.688 2.625 C-36 2 -36 2 -33 0 C-32.01 0 -31.02 0 -30 0 C-30 -0.66 -30 -1.32 -30 -2 C-19.837 -3.622 -9.448 -4.628 0 0 Z " fill="#E4BF48" transform="translate(383,299)"/>
<path d="M0 0 C22.11 0 44.22 0 67 0 C67 0.33 67 0.66 67 1 C66.217 1.006 65.435 1.012 64.628 1.018 C57.256 1.076 49.885 1.148 42.513 1.236 C38.723 1.28 34.933 1.32 31.143 1.346 C27.486 1.372 23.829 1.413 20.172 1.463 C18.776 1.48 17.38 1.491 15.985 1.498 C14.031 1.507 12.077 1.537 10.124 1.568 C9.011 1.579 7.899 1.59 6.752 1.601 C4 2 4 2 2.144 3.408 C0.727 5.38 0.579 6.597 0.488 9.012 C0.453 9.769 0.417 10.526 0.381 11.307 C0.358 12.092 0.336 12.878 0.312 13.688 C0.278 14.485 0.244 15.282 0.209 16.104 C0.127 18.069 0.062 20.034 0 22 C-0.66 21.67 -1.32 21.34 -2 21 C-2.054 18.437 -2.094 15.876 -2.125 13.312 C-2.133 12.952 -2.133 12.952 -2.176 11.127 C-2.217 6.652 -1.717 4.293 0 0 Z " fill="#E2C24F" transform="translate(438,916)"/>
<path d="M0 0 C0.66 0 1.32 0 2 0 C1.892 0.255 1.892 0.255 1.344 1.547 C-1.106 7.945 -2.092 14.18 -1 21 C1.216 23.974 2.739 25.37 6 27 C10.353 27.042 13.938 26.817 17.438 24.125 C18.67 22.449 19.846 20.731 21 19 C20.756 23.156 20.341 25.529 17.875 28.938 C14.183 31.586 12.467 31.693 8 31 C3.147 29.087 -0.087 26.369 -3 22 C-5.151 15.547 -4.15 9.316 -2 3 C-1.34 3 -0.68 3 0 3 C0 2.01 0 1.02 0 0 Z " fill="#E7C144" transform="translate(326,321)"/>
<path d="M0 0 C0.66 0 1.32 0 2 0 C2 0.99 2 1.98 2 3 C2.66 3 3.32 3 4 3 C6.22 8.273 6.987 13.365 6 19 C4.408 22.355 2.541 25.286 0 28 C-3.085 29.028 -5.269 29.134 -8.5 29.125 C-8.98 29.126 -8.98 29.126 -11.406 29.133 C-14 29 -14 29 -17 28 C-18.45 25.317 -19.118 23.727 -18.625 20.688 C-18.419 20.131 -18.212 19.574 -18 19 C-17.587 19.784 -17.175 20.567 -16.75 21.375 C-14.881 24.179 -14.169 25.032 -11 26 C-6.052 26.45 -2.886 26.22 1 23 C3.939 18.101 3.651 12.636 2.324 7.262 C1.596 4.822 0.829 2.407 0 0 Z " fill="#E8C244" transform="translate(408,322)"/>
<path d="M0 0 C3 2 3 2 3.428 3.832 C3.465 4.559 3.501 5.286 3.539 6.035 C3.94 11.029 5.072 15.612 6.375 20.438 C8.122 27.171 9.657 33.889 10.812 40.75 C10.936 41.463 11.06 42.177 11.187 42.912 C11.948 47.657 12.102 52.195 12 57 C11.67 57 11.34 57 11 57 C10.864 56.194 10.728 55.387 10.589 54.557 C9.963 50.87 9.325 47.185 8.688 43.5 C8.474 42.232 8.261 40.963 8.041 39.656 C6.894 33.085 5.515 27.17 3 21 C2.544 19.118 2.139 17.222 1.812 15.312 C1.654 14.422 1.495 13.531 1.332 12.613 C1.006 10.043 0.939 7.587 1 5 C0.34 5 -0.32 5 -1 5 C-0.67 3.35 -0.34 1.7 0 0 Z " fill="#D5B546" transform="translate(959,686)"/>
<path d="M0 0 C1.016 -0.019 2.032 -0.039 3.078 -0.059 C10.29 -0.012 16.023 1.465 22 5.625 C22.66 6.615 23.32 7.605 24 8.625 C21.69 7.965 19.38 7.305 17 6.625 C17 5.965 17 5.305 17 4.625 C11.196 3.304 5.49 3.402 -0.438 3.375 C-1.557 3.354 -2.677 3.334 -3.83 3.312 C-9.699 3.285 -13.897 3.388 -19 6.625 C-19.66 6.625 -20.32 6.625 -21 6.625 C-21.33 7.615 -21.66 8.605 -22 9.625 C-23.65 9.295 -25.3 8.965 -27 8.625 C-27 7.965 -27 7.305 -27 6.625 C-26.269 6.512 -25.538 6.399 -24.785 6.283 C-21.911 5.604 -19.973 4.589 -17.438 3.102 C-11.593 0.099 -6.48 -0.123 0 0 Z " fill="#D34E24" transform="translate(511,567.375)"/>
<path d="M0 0 C6.095 0.7 12.099 1.661 18.125 2.812 C18.993 2.965 19.86 3.118 20.754 3.275 C27.389 4.553 31.314 6.597 36.375 11.125 C38.785 15.389 38.63 19.212 38 24 C36.326 28.756 34.1 31.119 30 34 C30.33 32.35 30.66 30.7 31 29 C32.32 28.67 33.64 28.34 35 28 C35.196 26.084 35.381 24.167 35.562 22.25 C35.667 21.183 35.771 20.115 35.879 19.016 C35.986 16.359 35.819 14.5 35 12 C33.68 11.67 32.36 11.34 31 11 C31 10.01 31 9.02 31 8 C30.145 7.867 29.291 7.734 28.41 7.598 C27.858 7.509 27.858 7.509 25.062 7.062 C23.96 6.888 22.858 6.714 21.723 6.535 C19 6 19 6 18 5 C16.67 4.84 15.336 4.722 14 4.625 C9.042 4.14 4.646 2.746 0 1 C0 0.67 0 0.34 0 0 Z " fill="#F1911B" transform="translate(609,392)"/>
<path d="M0 0 C1.32 0 2.64 0 4 0 C4.33 1.98 4.66 3.96 5 6 C5.99 6.33 6.98 6.66 8 7 C9.613 8.672 9.613 8.672 11.312 10.75 C14.986 15.075 18.489 19.163 24 21 C24 21.66 24 22.32 24 23 C24.701 23.268 25.403 23.536 26.125 23.812 C29 25 29 25 31.688 26.438 C35.364 28.172 39.005 29.217 42.926 30.254 C45 31 45 31 46 33 C40.436 32.481 36.208 31.037 31.25 28.5 C30.553 28.146 29.855 27.792 29.137 27.428 C17.952 21.547 7.319 12.369 0 2 C0 1.34 0 0.68 0 0 Z " fill="#D29F46" transform="translate(852,813)"/>
<path d="M0 0 C0.262 0.111 0.262 0.111 1.585 0.671 C3.14 1.328 4.694 1.985 6.249 2.641 C8.006 3.383 9.762 4.128 11.517 4.875 C15.891 6.73 20.253 8.459 24.75 10 C29.143 11.716 31.512 14.365 34.395 18.027 C36.64 20.787 39.202 22.816 42 25 C37.967 25 36.165 23.391 33 21 C33 20.34 33 19.68 33 19 C32.34 19 31.68 19 31 19 C30.34 18.237 29.68 17.474 29 16.688 C25.965 13.482 22.579 12.837 18.41 11.738 C15.148 10.739 12.775 8.965 10 7 C6.703 5.257 3.359 3.62 0 2 C0 1.34 0 0.68 0 0 Z " fill="#FDBE34" transform="translate(397,435)"/>
<path d="M0 0 C1.646 0.145 3.292 0.291 4.938 0.438 C5.956 0.528 6.974 0.618 8.023 0.711 C10.385 0.94 12.714 1.235 15.062 1.562 C26.786 2.856 38.611 2.243 50.25 0.536 C55.69 -0.206 55.69 -0.206 59 2 C58.681 2.03 58.681 2.03 57.066 2.184 C56.24 2.267 55.414 2.351 54.562 2.438 C53.739 2.519 52.915 2.6 52.066 2.684 C50 3 50 3 49 4 C46.305 4.114 43.637 4.164 40.941 4.168 C40.123 4.171 39.305 4.175 38.462 4.178 C36.721 4.183 34.98 4.185 33.239 4.185 C30.605 4.187 27.972 4.206 25.338 4.225 C8.868 4.281 8.868 4.281 1 2 C0.67 1.34 0.34 0.68 0 0 Z " fill="#FEBE2E" transform="translate(482,482)"/>
<path d="M0 0 C-9.506 2.294 -18.7 4.386 -28.496 4.824 C-31 5 -31 5 -34 6 C-36.807 6.016 -39.583 5.974 -42.387 5.879 C-43.204 5.855 -44.021 5.832 -44.863 5.807 C-47.471 5.731 -50.079 5.647 -52.688 5.562 C-54.456 5.509 -56.225 5.457 -57.994 5.404 C-62.33 5.275 -66.665 5.139 -71 5 C-71 4.67 -71 4.34 -71 4 C-70.143 3.991 -69.286 3.981 -68.403 3.972 C-50.22 3.726 -32.385 2.797 -14.364 0.284 C-13.712 0.195 -13.712 0.195 -10.414 -0.258 C-9.269 -0.424 -8.124 -0.591 -6.944 -0.762 C-4.267 -0.978 -2.515 -0.859 0 0 Z " fill="#F8822C" transform="translate(571,454)"/>
<path d="M0 0 C15.18 0 30.36 0 46 0 C46 0.66 46 1.32 46 2 C51.28 2 56.56 2 62 2 C62 2.33 62 2.66 62 3 C56.385 3.05 50.77 3.086 45.154 3.11 C43.254 3.12 41.353 3.133 39.453 3.151 C26.164 3.271 13.196 2.591 0 1 C0 0.67 0 0.34 0 0 Z " fill="#F7812D" transform="translate(470,439)"/>
<path d="M0 0 C2.312 -0.25 2.312 -0.25 5 0 C6.812 2 6.812 2 8 4 C7.577 3.773 7.577 3.773 5.438 2.625 C4.303 2.419 3.169 2.212 2 2 C-0.938 4.312 -0.938 4.312 -2.707 6.023 C-7.86 10.465 -14.11 13.63 -20 17 C-20.629 17.364 -21.259 17.728 -21.907 18.103 C-23.681 19.124 -25.463 20.128 -27.25 21.125 C-28.286 21.705 -29.323 22.285 -30.391 22.883 C-33 24 -33 24 -36 23 C-30.614 19.242 -30.614 19.242 -27.625 18.062 C-24.416 16.764 -21.732 14.952 -18.867 13.023 C-17 12 -17 12 -14 12 C-14 11.34 -14 10.68 -14 10 C-13.34 10 -12.68 10 -12 10 C-12 9.34 -12 8.68 -12 8 C-11.196 7.711 -10.391 7.423 -9.562 7.125 C-7 6 -7 6 -6 4 C-4.333 3.333 -2.667 2.667 -1 2 C-0.67 1.34 -0.34 0.68 0 0 Z " fill="#D24A24" transform="translate(484,622)"/>
<path d="M0 0 C0.33 0.99 0.66 1.98 1 3 C0.567 3.371 0.134 3.743 -0.312 4.125 C-4.247 8.497 -5.612 12.841 -5.426 18.617 C-4.66 22.903 -2.596 26.541 0 30 C0.99 30.66 1.98 31.32 3 32 C3 32.66 3 33.32 3 34 C3.392 34.113 3.392 34.113 5.375 34.688 C10.123 36.407 14.521 38.681 19 41 C16.271 42.079 15.1 42.033 12.266 41.102 C4.331 37.217 -2.253 32.713 -6.18 24.547 C-7.97 18.989 -8.111 13.464 -5.691 8.098 C-2.108 2.108 -2.108 2.108 0 0 Z " fill="#F2A528" transform="translate(267,376)"/>
<path d="M0 0 C0.66 0.33 1.32 0.66 2 1 C-9.88 10.658 -24.055 11.94 -38.8 11.229 C-42.322 10.862 -45.598 9.968 -49 9 C-49 8.67 -49 8.34 -49 8 C-45.483 7.928 -42.171 7.974 -38.688 8.5 C-25.586 10.276 -13.325 7.407 -1.855 0.855 C-1.549 0.714 -1.549 0.714 0 0 Z " fill="#F2A327" transform="translate(335,410)"/>
<path d="M0 0 C0.655 0.375 1.31 0.75 1.984 1.137 C19.12 10.745 33.479 14.56 53 12 C50.463 14.578 48.493 15.226 44.988 15.363 C43.43 15.365 41.871 15.347 40.312 15.312 C39.501 15.301 38.69 15.29 37.854 15.278 C29.199 15.08 22.333 13.299 14.371 9.945 C12.236 9.094 10.16 8.448 7.938 7.875 C6.968 7.586 5.999 7.298 5 7 C4.67 6.34 4.34 5.68 4 5 C3.01 4.67 2.02 4.34 1 4 C0.312 1.938 0.312 1.938 0 0 Z " fill="#463B1E" transform="translate(871,834)"/>
<path d="M0 0 C0.66 0.33 1.32 0.66 2 1 C1.67 1.66 1.34 2.32 1 3 C0.468 8.338 0.359 12.696 2.75 17.562 C5.383 20.415 7.283 21.909 11.219 22.117 C17.401 21.461 17.401 21.461 20.438 19.125 C21.67 17.449 22.846 15.731 24 14 C23.81 18.077 23.216 19.752 20.5 22.875 C16.565 25.833 12.713 25.504 8 25 C7.031 24.918 6.061 24.835 5.062 24.75 C3 24 3 24 1.812 22 C1.544 21.34 1.276 20.68 1 20 C0.34 19.67 -0.32 19.34 -1 19 C-1.027 16.208 -1.047 13.417 -1.062 10.625 C-1.071 9.831 -1.079 9.037 -1.088 8.219 C-1.113 2.227 -1.113 2.227 0 0 Z " fill="#EDC340" transform="translate(610,326)"/>
<path d="M0 0 C1.32 0.66 2.64 1.32 4 2 C3.722 2.021 3.722 2.021 2.312 2.125 C-0.612 3.232 -1.821 5.086 -3.707 7.5 C-5.529 9.614 -7.493 10.813 -10 12 C-10.99 12 -11.98 12 -13 12 C-13.33 12.99 -13.66 13.98 -14 15 C-15.32 15 -16.64 15 -18 15 C-18.66 16.32 -19.32 17.64 -20 19 C-22.31 19 -24.62 19 -27 19 C-23.101 15.699 -19.029 13.163 -14.625 10.625 C-9.278 7.491 -4.512 4.292 0 0 Z " fill="#FEB83D" transform="translate(486,623)"/>
<path d="M0 0 C0.134 0.278 0.134 0.278 0.812 1.688 C1.204 2.451 1.596 3.214 2 4 C2.392 4.825 2.784 5.65 3.188 6.5 C5.657 9.906 8.268 11.099 12 13 C12 13.66 12 14.32 12 15 C12.701 15.268 13.402 15.536 14.125 15.812 C17 17 17 17 19.875 18.5 C23.195 20.094 26.458 21.016 30 22 C30.34 22.175 30.34 22.175 32.062 23.062 C34.641 24.31 37.178 24.615 40 25 C40 25.99 40 26.98 40 28 C27.016 24.723 9.653 19.035 1.375 7.875 C-0.031 4.935 -0.378 3.21 0 0 Z " fill="#C95F10" transform="translate(386,419)"/>
<path d="M0 0 C4.068 4.808 5.44 9.837 5.25 16.043 C4.701 20.344 3.04 23.134 -0.25 25.875 C-3.807 27.33 -6.182 27.469 -10 27 C-13.438 25 -13.438 25 -16 23 C-15.34 22.67 -14.68 22.34 -14 22 C-13.34 22.33 -12.68 22.66 -12 23 C-9.963 23.229 -7.92 23.41 -5.875 23.562 C-5.327 23.604 -5.327 23.604 -2.555 23.816 C-2.133 23.847 -2.133 23.847 0 24 C2.655 19.428 2.425 15.16 2 10 C1 6.625 1 6.625 0 4 C0 2.68 0 1.36 0 0 Z " fill="#3F330B" transform="translate(407,322)"/>
<path d="M0 0 C-3.478 2.112 -3.478 2.112 -5.75 1.625 C-6.492 1.419 -7.235 1.212 -8 1 C-15.918 0.34 -20.711 2.533 -27 7.25 C-27.66 7.827 -28.32 8.405 -29 9 C-29.33 7.68 -29.66 6.36 -30 5 C-28.68 5 -27.36 5 -26 5 C-26 4.01 -26 3.02 -26 2 C-25.34 2 -24.68 2 -24 2 C-24 1.34 -24 0.68 -24 0 C-14.992 -3.432 -8.944 -3.766 0 0 Z " fill="#372F14" transform="translate(666,323)"/>
<path d="M0 0 C4.12 0.612 7.263 2.003 10.938 3.938 C17.494 7.381 22.943 9.204 30.375 9.625 C31.62 9.7 32.865 9.775 34.148 9.852 C35.089 9.901 36.03 9.95 37 10 C37 9.34 37 8.68 37 8 C37.784 7.732 38.567 7.464 39.375 7.188 C42 6 42 6 44 3 C44.66 3 45.32 3 46 3 C43.922 7.863 40.787 9.95 36 12 C23.967 14.665 9.935 7.01 0 1 C0 0.67 0 0.34 0 0 Z " fill="#D25121" transform="translate(562,640)"/>
<path d="M0 0 C1.187 -0.003 2.374 -0.005 3.598 -0.008 C6.512 0.108 9.108 0.451 11.938 1.125 C11.938 1.455 11.938 1.785 11.938 2.125 C-0.576 3.208 -0.576 3.208 -5.438 2.938 C-15.413 2.827 -24.98 6.578 -33.062 12.125 C-33.723 11.795 -34.382 11.465 -35.062 11.125 C-24.825 3.189 -12.86 -0.028 0 0 Z " fill="#F1A326" transform="translate(304.0625,363.875)"/>
<path d="M0 0 C0.99 0.33 1.98 0.66 3 1 C-3.283 13.854 -3.283 13.854 -7 17 C-10.623 18.152 -14.372 18.708 -17.922 17.164 C-19.562 16.062 -19.562 16.062 -22 14 C-21.34 13.67 -20.68 13.34 -20 13 C-19.34 13.33 -18.68 13.66 -18 14 C-16.171 14.147 -14.335 14.221 -12.5 14.25 C-11.52 14.276 -10.541 14.302 -9.531 14.328 C-8.696 14.22 -7.861 14.112 -7 14 C-4.656 10.484 -3.86 7.227 -2.781 3.18 C-2 1 -2 1 0 0 Z " fill="#403410" transform="translate(348,331)"/>
<path d="M0 0 C1 2 1 2 0.328 4.023 C-3.607 12.607 -3.607 12.607 -6 15 C-6.99 15 -7.98 15 -9 15 C-9.227 15.577 -9.454 16.155 -9.688 16.75 C-11.329 19.564 -13.436 21.027 -16 23 C-16.33 23.66 -16.66 24.32 -17 25 C-19.065 26.137 -21.178 27.188 -23.312 28.188 C-23.888 28.463 -23.888 28.463 -26.801 29.855 C-29.912 30.969 -31.03 31.269 -34 30 C-33.25 29.732 -32.5 29.464 -31.727 29.188 C-16.769 23.46 -7.984 13.691 0 0 Z " fill="#4A3F1F" transform="translate(958,815)"/>
<path d="M0 0 C4.188 1.336 6.142 2.924 8.75 6.438 C9.343 7.22 9.936 8.002 10.547 8.809 C13.832 13.763 13.688 19.263 13 25 C11.051 30.224 8.617 33.843 4 37 C4 35.35 4 33.7 4 32 C4.619 31.959 5.238 31.918 5.875 31.875 C6.576 31.586 7.277 31.298 8 31 C9.188 28.062 9.188 28.062 10 25 C10.33 24.34 10.66 23.68 11 23 C11.429 17.525 10.563 13.852 8 9 C6.704 7.63 5.38 6.285 4 5 C4 4.34 4 3.68 4 3 C2.68 2.34 1.36 1.68 0 1 C0 0.67 0 0.34 0 0 Z " fill="#F2A528" transform="translate(334,373)"/>
<path d="M0 0 C0.66 0.33 1.32 0.66 2 1 C-4.143 7.539 -10.174 12.882 -19 15 C-20.938 16.625 -20.938 16.625 -22 18 C-22.66 17.67 -23.32 17.34 -24 17 C-19.037 12.069 -13.515 8.222 -7.625 4.5 C-6.911 4.043 -6.197 3.585 -5.461 3.114 C-3.68 2.009 -1.844 0.996 0 0 Z " fill="#D7472A" transform="translate(560,558)"/>
<path d="M0 0 C0.701 0.701 1.403 1.403 2.125 2.125 C2.125 2.785 2.125 3.445 2.125 4.125 C2.785 4.125 3.445 4.125 4.125 4.125 C4.125 4.785 4.125 5.445 4.125 6.125 C4.785 6.125 5.445 6.125 6.125 6.125 C6.455 7.775 6.785 9.425 7.125 11.125 C5.749 9.835 4.417 8.498 3.125 7.125 C3.125 6.465 3.125 5.805 3.125 5.125 C2.764 4.981 2.764 4.981 0.938 4.25 C-0.813 3.55 -2.547 2.807 -4.25 2 C-9.985 0.088 -16.013 1.302 -21.875 2.125 C-21.875 1.135 -21.875 0.145 -21.875 -0.875 C-15.457 -2.839 -5.831 -3.77 0 0 Z " fill="#FDB73B" transform="translate(602.875,545.875)"/>
<path d="M0 0 C0 0.99 0 1.98 0 3 C-3.858 5.153 -6.551 6.393 -11 6 C-11 6.66 -11 7.32 -11 8 C-12.654 9.022 -14.324 10.016 -16 11 C-18.137 12.703 -20.234 14.417 -22.312 16.188 C-22.862 16.651 -23.412 17.114 -23.979 17.592 C-25.322 18.725 -26.661 19.862 -28 21 C-28.66 20.67 -29.32 20.34 -30 20 C-29.096 19.169 -28.193 18.337 -27.262 17.48 C-26.07 16.383 -24.879 15.285 -23.688 14.188 C-23.093 13.64 -22.498 13.093 -21.885 12.529 C-21.308 11.998 -20.731 11.466 -20.137 10.918 C-19.608 10.431 -19.079 9.944 -18.534 9.442 C-17.494 8.464 -16.487 7.449 -15.514 6.404 C-13.059 4.127 -9.935 3.349 -6.812 2.312 C-6.485 2.2 -6.485 2.2 -4.83 1.631 C-3.223 1.079 -1.612 0.539 0 0 Z " fill="#FDBF33" transform="translate(612,441)"/>
<path d="M0 0 C0.938 0.003 1.876 0.006 2.842 0.01 C3.33 0.014 3.33 0.014 5.801 0.035 C6.789 0.04 7.777 0.044 8.795 0.049 C11.234 0.061 13.674 0.077 16.113 0.098 C9.927 4.222 5.06 4.356 -2.199 4.223 C-3.131 4.214 -4.062 4.205 -5.021 4.195 C-7.31 4.172 -9.598 4.139 -11.887 4.098 C-7.906 0.941 -5.058 -0.031 0 0 Z " fill="#767655" transform="translate(589.88671875,687.90234375)"/>
<path d="M0 0 C0.33 0 0.66 0 1 0 C0.791 15.202 -1.355 30.088 -10 43 C-10.33 42.34 -10.66 41.68 -11 41 C-10.151 38.494 -9.239 36.075 -8.25 33.625 C-3.97 22.607 -1.606 11.711 0 0 Z " fill="#4B461C" transform="translate(970,772)"/>
<path d="M0 0 C0.66 0.33 1.32 0.66 2 1 C-4.25 7.346 -10.779 12.413 -18.375 17.062 C-19.148 17.539 -19.92 18.016 -20.716 18.507 C-24.432 20.726 -27.604 22.571 -32 23 C-28.741 20.42 -25.272 18.306 -21.707 16.184 C-20 15 -20 15 -19 13 C-17.68 13 -16.36 13 -15 13 C-15 12.34 -15 11.68 -15 11 C-14.01 10.67 -13.02 10.34 -12 10 C-11.67 9.34 -11.34 8.68 -11 8 C-10.01 7.711 -9.02 7.423 -8 7.125 C-7.01 6.754 -6.02 6.382 -5 6 C-4.375 4 -4.375 4 -4 2 C-2.062 0.688 -2.062 0.688 0 0 Z " fill="#F2921B" transform="translate(591,451)"/>
<path d="M0 0 C1.625 -0.027 3.25 -0.046 4.875 -0.062 C5.78 -0.074 6.685 -0.086 7.617 -0.098 C10 0 10 0 12 1 C12 1.66 12 2.32 12 3 C13.011 2.959 14.021 2.918 15.062 2.875 C19.09 3.003 22.149 3.871 26 5 C28.295 5.284 30.58 5.492 32.887 5.656 C35.232 6.038 36.936 6.845 39 8 C39 8.33 39 8.66 39 9 C34.019 9.149 29.673 8.666 24.824 7.539 C24.173 7.388 23.522 7.238 22.851 7.083 C21.488 6.765 20.126 6.444 18.764 6.119 C16.678 5.623 14.588 5.143 12.498 4.664 C11.169 4.353 9.84 4.04 8.512 3.727 C7.31 3.444 6.108 3.161 4.87 2.87 C2 2 2 2 0 0 Z " fill="#FA9A27" transform="translate(348,1087)"/>
<path d="M0 0 C0.33 0.66 0.66 1.32 1 2 C0.674 2.049 0.674 2.049 -0.977 2.297 C-7.869 3.476 -12.449 5.166 -17.25 10.5 C-18.737 12.624 -19.949 14.636 -21 17 C-21.66 17 -22.32 17 -23 17 C-23.33 17.66 -23.66 18.32 -24 19 C-24 17.68 -24 16.36 -24 15 C-23.34 15 -22.68 15 -22 15 C-21.752 13.886 -21.505 12.773 -21.25 11.625 C-20 8 -20 8 -17.875 6.562 C-17.566 6.47 -17.566 6.47 -16 6 C-16 5.34 -16 4.68 -16 4 C-15.01 4 -14.02 4 -13 4 C-13 3.34 -13 2.68 -13 2 C-8.503 -0.248 -4.921 -0.167 0 0 Z " fill="#FEBB3B" transform="translate(432,544)"/>
<path d="M0 0 C1.32 0.66 2.64 1.32 4 2 C-2.904 7.031 -10.162 10.639 -18 14 C-18.413 14.178 -18.413 14.178 -20.504 15.078 C-25.587 17.138 -25.587 17.138 -29 16 C-27.35 15.67 -25.7 15.34 -24 15 C-24 14.34 -24 13.68 -24 13 C-23.536 12.856 -23.536 12.856 -21.188 12.125 C-18 11 -18 11 -15 9 C-13.68 9 -12.36 9 -11 9 C-11 8.34 -11 7.68 -11 7 C-9.35 7 -7.7 7 -6 7 C-6 6.34 -6 5.68 -6 5 C-5.01 5 -4.02 5 -3 5 C-3 4.34 -3 3.68 -3 3 C-2.01 3 -1.02 3 0 3 C0 2.01 0 1.02 0 0 Z " fill="#C45C11" transform="translate(627,429)"/>
<path d="M0 0 C0.66 0 1.32 0 2 0 C2.242 0.554 2.485 1.109 2.734 1.68 C3.07 2.404 3.405 3.129 3.75 3.875 C4.075 4.594 4.4 5.314 4.734 6.055 C6.234 8.36 7.571 8.825 10 10 C10.727 11.979 11.398 13.98 12 16 C12.66 16.33 13.32 16.66 14 17 C14.633 19.504 14.633 19.504 15.125 22.562 C15.293 23.574 15.46 24.586 15.633 25.629 C15.693 26.02 15.693 26.02 16 28 C13.194 25.513 11.632 22.78 9.863 19.492 C9.286 18.424 8.71 17.355 8.115 16.254 C7.52 15.139 6.925 14.024 6.312 12.875 C5.706 11.752 5.099 10.629 4.475 9.473 C0 1.148 0 1.148 0 0 Z " fill="#DEA341" transform="translate(810,745)"/>
<path d="M0 0 C1.61 3.221 0.068 5.682 -1 9 C-1.642 10.676 -2.299 12.348 -3 14 C-3.66 14 -4.32 14 -5 14 C-5 23.9 -5 33.8 -5 44 C-5.33 44 -5.66 44 -6 44 C-6.075 39.589 -6.129 35.179 -6.165 30.768 C-6.18 29.27 -6.2 27.773 -6.226 26.275 C-6.546 7.481 -6.546 7.481 0 0 Z " fill="#6F6F4E" transform="translate(569,698)"/>
<path d="M0 0 C4.873 1.715 9.143 4.309 13.562 6.938 C14.317 7.38 15.072 7.823 15.85 8.279 C19.372 10.362 22.803 12.43 26 15 C19.131 14.509 14.061 12.177 8.375 8.5 C7.747 8.096 7.119 7.692 6.472 7.276 C4.938 6.246 3.462 5.129 2 4 C2 3.34 2 2.68 2 2 C1.34 2 0.68 2 0 2 C0 1.34 0 0.68 0 0 Z " fill="#FEBB3C" transform="translate(545,631)"/>
<path d="M0 0 C4.233 3.031 8.215 6.307 12.062 9.812 C11.732 10.473 11.403 11.132 11.062 11.812 C10.624 11.365 10.186 10.918 9.734 10.457 C1.904 2.993 -7.881 -1.005 -18.625 -1.75 C-19.804 -1.834 -20.984 -1.918 -22.199 -2.004 C-23.103 -2.064 -24.006 -2.125 -24.938 -2.188 C-24.938 -2.517 -24.938 -2.848 -24.938 -3.188 C-16.335 -5.249 -7.571 -4.744 0 0 Z " fill="#E0BD4A" transform="translate(675.9375,300.1875)"/>
<path d="M0 0 C0.763 0.309 1.526 0.619 2.312 0.938 C6.32 2.522 9.468 3.164 13.762 3.316 C14.321 3.337 14.321 3.337 17.15 3.443 C18.318 3.483 19.485 3.522 20.688 3.562 C21.866 3.606 23.045 3.649 24.26 3.693 C27.173 3.8 30.086 3.902 33 4 C33 4.66 33 5.32 33 6 C24.42 6 15.84 6 7 6 C7 5.34 7 4.68 7 4 C6.01 3.835 6.01 3.835 1 3 C0.67 2.01 0.34 1.02 0 0 Z " fill="#FEB03F" transform="translate(490,626)"/>
<path d="M0 0 C2.383 1.26 4.056 2.867 5.766 4.934 C2.836 4.525 0.229 4.14 -2.484 2.934 C-5.883 1.698 -8.942 1.511 -12.547 1.309 C-13.174 1.271 -13.174 1.271 -16.348 1.082 C-17.3 1.033 -18.253 0.984 -19.234 0.934 C-14.061 -4.24 -6.14 -2.526 0 0 Z " fill="#E2BD43" transform="translate(664.234375,325.06640625)"/>
</svg>
